{
  "header": {
    "PPQ": 96,
    "timeSignature": [
      4,
      4
    ],
    "bpm": 162.000162000162,
    "name": ""
  },
  "tempo": [
    {
      "absoluteTime": 0,
      "seconds": 0,
      "bpm": 162.000162000162
    },
    {
      "absoluteTime": 0,
      "seconds": 0,
      "bpm": 162.000162000162
    },
    {
      "absoluteTime": 0,
      "seconds": 0,
      "bpm": 162.000162000162
    }
  ],
  "timeSignature": [
    {
      "absoluteTime": 0,
      "seconds": 0,
      "numerator": 4,
      "denominator": 2,
      "click": 24,
      "notesQ": 8
    }
  ],
  "startTime": 0,
  "duration": 92.08324125000055,
  "tracks": [
    {
      "startTime": 0,
      "duration": 0,
      "length": 0,
      "notes": [],
      "controlChanges": {},
      "id": 0
    },
    {
      "startTime": 0,
      "duration": 0,
      "length": 0,
      "notes": [],
      "controlChanges": {},
      "id": 1
    },
    {
      "startTime": 0.9259250000000001,
      "duration": 92.08324125000055,
      "length": 666,
      "notes": [
        {
          "name": "E5",
          "midi": 76,
          "time": 0.9259250000000001,
          "velocity": 0.7244094488188977,
          "duration": 0.1311727083333334
        },
        {
          "name": "E4",
          "midi": 64,
          "time": 0.9259250000000001,
          "velocity": 0.7244094488188977,
          "duration": 0.1311727083333334
        },
        {
          "name": "E3",
          "midi": 52,
          "time": 0.9259250000000001,
          "velocity": 0.7244094488188977,
          "duration": 0.1311727083333334
        },
        {
          "name": "A5",
          "midi": 81,
          "time": 1.1111100000000003,
          "velocity": 0.7244094488188977,
          "duration": 0.1311727083333334
        },
        {
          "name": "A4",
          "midi": 69,
          "time": 1.1111100000000003,
          "velocity": 0.7244094488188977,
          "duration": 0.1311727083333334
        },
        {
          "name": "A3",
          "midi": 57,
          "time": 1.1111100000000003,
          "velocity": 0.7244094488188977,
          "duration": 0.1311727083333334
        },
        {
          "name": "B5",
          "midi": 83,
          "time": 1.2962950000000004,
          "velocity": 0.7244094488188977,
          "duration": 0.1311727083333334
        },
        {
          "name": "B4",
          "midi": 71,
          "time": 1.2962950000000004,
          "velocity": 0.7244094488188977,
          "duration": 0.1311727083333334
        },
        {
          "name": "B3",
          "midi": 59,
          "time": 1.2962950000000004,
          "velocity": 0.7244094488188977,
          "duration": 0.1311727083333334
        },
        {
          "name": "C6",
          "midi": 84,
          "time": 1.4814800000000006,
          "velocity": 0.7244094488188977,
          "duration": 0.49382666666666664
        },
        {
          "name": "C5",
          "midi": 72,
          "time": 1.4814800000000006,
          "velocity": 0.7244094488188977,
          "duration": 0.49382666666666664
        },
        {
          "name": "C4",
          "midi": 60,
          "time": 1.4814800000000006,
          "velocity": 0.7244094488188977,
          "duration": 0.49382666666666664
        },
        {
          "name": "D6",
          "midi": 86,
          "time": 2.0370350000000004,
          "velocity": 0.7244094488188977,
          "duration": 0.13117270833333317
        },
        {
          "name": "D5",
          "midi": 74,
          "time": 2.0370350000000004,
          "velocity": 0.7244094488188977,
          "duration": 0.13117270833333317
        },
        {
          "name": "D4",
          "midi": 62,
          "time": 2.0370350000000004,
          "velocity": 0.7244094488188977,
          "duration": 0.13117270833333317
        },
        {
          "name": "B5",
          "midi": 83,
          "time": 2.22222,
          "velocity": 0.7244094488188977,
          "duration": 0.49382666666666664
        },
        {
          "name": "B4",
          "midi": 71,
          "time": 2.22222,
          "velocity": 0.7244094488188977,
          "duration": 0.49382666666666664
        },
        {
          "name": "B3",
          "midi": 59,
          "time": 2.22222,
          "velocity": 0.7244094488188977,
          "duration": 0.49382666666666664
        },
        {
          "name": "C6",
          "midi": 84,
          "time": 2.777775,
          "velocity": 0.7244094488188977,
          "duration": 0.13117270833333317
        },
        {
          "name": "C5",
          "midi": 72,
          "time": 2.777775,
          "velocity": 0.7244094488188977,
          "duration": 0.13117270833333317
        },
        {
          "name": "C4",
          "midi": 60,
          "time": 2.777775,
          "velocity": 0.7244094488188977,
          "duration": 0.13117270833333317
        },
        {
          "name": "A5",
          "midi": 81,
          "time": 2.96296,
          "velocity": 0.7244094488188977,
          "duration": 0.6481475000000003
        },
        {
          "name": "A4",
          "midi": 69,
          "time": 2.96296,
          "velocity": 0.7244094488188977,
          "duration": 0.6481475000000003
        },
        {
          "name": "A3",
          "midi": 57,
          "time": 2.96296,
          "velocity": 0.7244094488188977,
          "duration": 0.6481475000000003
        },
        {
          "name": "A5",
          "midi": 81,
          "time": 3.888885,
          "velocity": 0.7244094488188977,
          "duration": 0.11959864583333335
        },
        {
          "name": "A4",
          "midi": 69,
          "time": 3.888885,
          "velocity": 0.7244094488188977,
          "duration": 0.11959864583333335
        },
        {
          "name": "A3",
          "midi": 57,
          "time": 3.888885,
          "velocity": 0.7244094488188977,
          "duration": 0.11959864583333335
        },
        {
          "name": "G#5",
          "midi": 80,
          "time": 4.012341666666667,
          "velocity": 0.7244094488188977,
          "duration": 0.05787031250000041
        },
        {
          "name": "G#4",
          "midi": 68,
          "time": 4.012341666666667,
          "velocity": 0.7244094488188977,
          "duration": 0.05787031250000041
        },
        {
          "name": "G#3",
          "midi": 56,
          "time": 4.012341666666667,
          "velocity": 0.7244094488188977,
          "duration": 0.05787031250000041
        },
        {
          "name": "A5",
          "midi": 81,
          "time": 4.074070000000001,
          "velocity": 0.7244094488188977,
          "duration": 0.11959864583333335
        },
        {
          "name": "A4",
          "midi": 69,
          "time": 4.074070000000001,
          "velocity": 0.7244094488188977,
          "duration": 0.11959864583333335
        },
        {
          "name": "A3",
          "midi": 57,
          "time": 4.074070000000001,
          "velocity": 0.7244094488188977,
          "duration": 0.11959864583333335
        },
        {
          "name": "B5",
          "midi": 83,
          "time": 4.1975266666666675,
          "velocity": 0.7244094488188977,
          "duration": 0.05787031250000041
        },
        {
          "name": "B4",
          "midi": 71,
          "time": 4.1975266666666675,
          "velocity": 0.7244094488188977,
          "duration": 0.05787031250000041
        },
        {
          "name": "B3",
          "midi": 59,
          "time": 4.1975266666666675,
          "velocity": 0.7244094488188977,
          "duration": 0.05787031250000041
        },
        {
          "name": "C6",
          "midi": 84,
          "time": 4.259255000000001,
          "velocity": 0.7244094488188977,
          "duration": 0.11959864583333335
        },
        {
          "name": "C5",
          "midi": 72,
          "time": 4.259255000000001,
          "velocity": 0.7244094488188977,
          "duration": 0.11959864583333335
        },
        {
          "name": "C4",
          "midi": 60,
          "time": 4.259255000000001,
          "velocity": 0.7244094488188977,
          "duration": 0.11959864583333335
        },
        {
          "name": "D6",
          "midi": 86,
          "time": 4.382711666666668,
          "velocity": 0.7244094488188977,
          "duration": 0.05787031250000041
        },
        {
          "name": "D5",
          "midi": 74,
          "time": 4.382711666666668,
          "velocity": 0.7244094488188977,
          "duration": 0.05787031250000041
        },
        {
          "name": "D4",
          "midi": 62,
          "time": 4.382711666666668,
          "velocity": 0.7244094488188977,
          "duration": 0.05787031250000041
        },
        {
          "name": "E6",
          "midi": 88,
          "time": 4.444440000000002,
          "velocity": 0.7244094488188977,
          "duration": 0.23148124999999986
        },
        {
          "name": "E5",
          "midi": 76,
          "time": 4.444440000000002,
          "velocity": 0.7244094488188977,
          "duration": 0.23148124999999986
        },
        {
          "name": "E4",
          "midi": 64,
          "time": 4.444440000000002,
          "velocity": 0.7244094488188977,
          "duration": 0.23148124999999986
        },
        {
          "name": "E6",
          "midi": 88,
          "time": 4.814810000000001,
          "velocity": 0.7244094488188977,
          "duration": 0.23148124999999986
        },
        {
          "name": "E5",
          "midi": 76,
          "time": 4.814810000000001,
          "velocity": 0.7244094488188977,
          "duration": 0.23148124999999986
        },
        {
          "name": "E4",
          "midi": 64,
          "time": 4.814810000000001,
          "velocity": 0.7244094488188977,
          "duration": 0.23148124999999986
        },
        {
          "name": "E6",
          "midi": 88,
          "time": 5.185180000000001,
          "velocity": 0.7244094488188977,
          "duration": 0.23148124999999986
        },
        {
          "name": "E5",
          "midi": 76,
          "time": 5.185180000000001,
          "velocity": 0.7244094488188977,
          "duration": 0.23148124999999986
        },
        {
          "name": "E4",
          "midi": 64,
          "time": 5.185180000000001,
          "velocity": 0.7244094488188977,
          "duration": 0.23148124999999986
        },
        {
          "name": "E6",
          "midi": 88,
          "time": 5.55555,
          "velocity": 0.7244094488188977,
          "duration": 0.23148124999999986
        },
        {
          "name": "E5",
          "midi": 76,
          "time": 5.55555,
          "velocity": 0.7244094488188977,
          "duration": 0.23148124999999986
        },
        {
          "name": "E4",
          "midi": 64,
          "time": 5.55555,
          "velocity": 0.7244094488188977,
          "duration": 0.23148124999999986
        },
        {
          "name": "E6",
          "midi": 88,
          "time": 5.92592,
          "velocity": 0.7244094488188977,
          "duration": 0.9220669791666669
        },
        {
          "name": "E5",
          "midi": 76,
          "time": 5.92592,
          "velocity": 0.7244094488188977,
          "duration": 0.9220669791666669
        },
        {
          "name": "E4",
          "midi": 64,
          "time": 5.92592,
          "velocity": 0.7244094488188977,
          "duration": 0.9220669791666669
        },
        {
          "name": "D6",
          "midi": 86,
          "time": 7.03703,
          "velocity": 0.7244094488188977,
          "duration": 0.1311727083333336
        },
        {
          "name": "D5",
          "midi": 74,
          "time": 7.03703,
          "velocity": 0.7244094488188977,
          "duration": 0.1311727083333336
        },
        {
          "name": "D4",
          "midi": 62,
          "time": 7.03703,
          "velocity": 0.7244094488188977,
          "duration": 0.1311727083333336
        },
        {
          "name": "E6",
          "midi": 88,
          "time": 7.222215,
          "velocity": 0.7244094488188977,
          "duration": 0.1311727083333336
        },
        {
          "name": "E5",
          "midi": 76,
          "time": 7.222215,
          "velocity": 0.7244094488188977,
          "duration": 0.1311727083333336
        },
        {
          "name": "E4",
          "midi": 64,
          "time": 7.222215,
          "velocity": 0.7244094488188977,
          "duration": 0.1311727083333336
        },
        {
          "name": "F6",
          "midi": 89,
          "time": 7.407400000000001,
          "velocity": 0.7244094488188977,
          "duration": 0.6481475000000003
        },
        {
          "name": "F5",
          "midi": 77,
          "time": 7.407400000000001,
          "velocity": 0.7244094488188977,
          "duration": 0.6481475000000003
        },
        {
          "name": "F4",
          "midi": 65,
          "time": 7.407400000000001,
          "velocity": 0.7244094488188977,
          "duration": 0.6481475000000003
        },
        {
          "name": "B5",
          "midi": 83,
          "time": 8.148140000000001,
          "velocity": 0.7244094488188977,
          "duration": 0.3086416666666665
        },
        {
          "name": "B4",
          "midi": 71,
          "time": 8.148140000000001,
          "velocity": 0.7244094488188977,
          "duration": 0.3086416666666665
        },
        {
          "name": "B3",
          "midi": 59,
          "time": 8.148140000000001,
          "velocity": 0.7244094488188977,
          "duration": 0.3086416666666665
        },
        {
          "name": "C6",
          "midi": 84,
          "time": 8.518510000000001,
          "velocity": 0.7244094488188977,
          "duration": 0.13117270833333272
        },
        {
          "name": "C5",
          "midi": 72,
          "time": 8.518510000000001,
          "velocity": 0.7244094488188977,
          "duration": 0.13117270833333272
        },
        {
          "name": "C4",
          "midi": 60,
          "time": 8.518510000000001,
          "velocity": 0.7244094488188977,
          "duration": 0.13117270833333272
        },
        {
          "name": "D6",
          "midi": 86,
          "time": 8.703695,
          "velocity": 0.7244094488188977,
          "duration": 0.13117270833333272
        },
        {
          "name": "D5",
          "midi": 74,
          "time": 8.703695,
          "velocity": 0.7244094488188977,
          "duration": 0.13117270833333272
        },
        {
          "name": "D4",
          "midi": 62,
          "time": 8.703695,
          "velocity": 0.7244094488188977,
          "duration": 0.13117270833333272
        },
        {
          "name": "E6",
          "midi": 88,
          "time": 8.888879999999999,
          "velocity": 0.7244094488188977,
          "duration": 0.6481475000000003
        },
        {
          "name": "E5",
          "midi": 76,
          "time": 8.888879999999999,
          "velocity": 0.7244094488188977,
          "duration": 0.6481475000000003
        },
        {
          "name": "E4",
          "midi": 64,
          "time": 8.888879999999999,
          "velocity": 0.7244094488188977,
          "duration": 0.6481475000000003
        },
        {
          "name": "A5",
          "midi": 81,
          "time": 9.62962,
          "velocity": 0.7244094488188977,
          "duration": 0.3086416666666665
        },
        {
          "name": "A4",
          "midi": 69,
          "time": 9.62962,
          "velocity": 0.7244094488188977,
          "duration": 0.3086416666666665
        },
        {
          "name": "A3",
          "midi": 57,
          "time": 9.62962,
          "velocity": 0.7244094488188977,
          "duration": 0.3086416666666665
        },
        {
          "name": "A5",
          "midi": 81,
          "time": 9.999989999999999,
          "velocity": 0.7244094488188977,
          "duration": 0.13117270833333272
        },
        {
          "name": "A4",
          "midi": 69,
          "time": 9.999989999999999,
          "velocity": 0.7244094488188977,
          "duration": 0.13117270833333272
        },
        {
          "name": "A3",
          "midi": 57,
          "time": 9.999989999999999,
          "velocity": 0.7244094488188977,
          "duration": 0.13117270833333272
        },
        {
          "name": "B5",
          "midi": 83,
          "time": 10.185174999999997,
          "velocity": 0.7244094488188977,
          "duration": 0.13117270833333272
        },
        {
          "name": "B4",
          "midi": 71,
          "time": 10.185174999999997,
          "velocity": 0.7244094488188977,
          "duration": 0.13117270833333272
        },
        {
          "name": "B3",
          "midi": 59,
          "time": 10.185174999999997,
          "velocity": 0.7244094488188977,
          "duration": 0.13117270833333272
        },
        {
          "name": "C6",
          "midi": 84,
          "time": 10.370359999999996,
          "velocity": 0.7244094488188977,
          "duration": 0.4938266666666671
        },
        {
          "name": "C5",
          "midi": 72,
          "time": 10.370359999999996,
          "velocity": 0.7244094488188977,
          "duration": 0.4938266666666671
        },
        {
          "name": "C4",
          "midi": 60,
          "time": 10.370359999999996,
          "velocity": 0.7244094488188977,
          "duration": 0.4938266666666671
        },
        {
          "name": "D6",
          "midi": 86,
          "time": 10.925914999999996,
          "velocity": 0.7244094488188977,
          "duration": 0.13117270833333272
        },
        {
          "name": "D5",
          "midi": 74,
          "time": 10.925914999999996,
          "velocity": 0.7244094488188977,
          "duration": 0.13117270833333272
        },
        {
          "name": "D4",
          "midi": 62,
          "time": 10.925914999999996,
          "velocity": 0.7244094488188977,
          "duration": 0.13117270833333272
        },
        {
          "name": "B5",
          "midi": 83,
          "time": 11.111099999999995,
          "velocity": 0.7244094488188977,
          "duration": 0.4938266666666671
        },
        {
          "name": "B4",
          "midi": 71,
          "time": 11.111099999999995,
          "velocity": 0.7244094488188977,
          "duration": 0.4938266666666671
        },
        {
          "name": "B3",
          "midi": 59,
          "time": 11.111099999999995,
          "velocity": 0.7244094488188977,
          "duration": 0.4938266666666671
        },
        {
          "name": "C6",
          "midi": 84,
          "time": 11.666654999999995,
          "velocity": 0.7244094488188977,
          "duration": 0.13117270833333272
        },
        {
          "name": "C5",
          "midi": 72,
          "time": 11.666654999999995,
          "velocity": 0.7244094488188977,
          "duration": 0.13117270833333272
        },
        {
          "name": "C4",
          "midi": 60,
          "time": 11.666654999999995,
          "velocity": 0.7244094488188977,
          "duration": 0.13117270833333272
        },
        {
          "name": "A5",
          "midi": 81,
          "time": 11.851839999999994,
          "velocity": 0.7244094488188977,
          "duration": 0.6481475000000003
        },
        {
          "name": "A4",
          "midi": 69,
          "time": 11.851839999999994,
          "velocity": 0.7244094488188977,
          "duration": 0.6481475000000003
        },
        {
          "name": "A3",
          "midi": 57,
          "time": 11.851839999999994,
          "velocity": 0.7244094488188977,
          "duration": 0.6481475000000003
        },
        {
          "name": "E5",
          "midi": 76,
          "time": 12.777764999999995,
          "velocity": 0.7244094488188977,
          "duration": 0.13117270833333272
        },
        {
          "name": "E4",
          "midi": 64,
          "time": 12.777764999999995,
          "velocity": 0.7244094488188977,
          "duration": 0.13117270833333272
        },
        {
          "name": "E3",
          "midi": 52,
          "time": 12.777764999999995,
          "velocity": 0.7244094488188977,
          "duration": 0.13117270833333272
        },
        {
          "name": "A5",
          "midi": 81,
          "time": 12.962949999999994,
          "velocity": 0.7244094488188977,
          "duration": 0.13117270833333272
        },
        {
          "name": "A4",
          "midi": 69,
          "time": 12.962949999999994,
          "velocity": 0.7244094488188977,
          "duration": 0.13117270833333272
        },
        {
          "name": "A3",
          "midi": 57,
          "time": 12.962949999999994,
          "velocity": 0.7244094488188977,
          "duration": 0.13117270833333272
        },
        {
          "name": "B5",
          "midi": 83,
          "time": 13.148134999999993,
          "velocity": 0.7244094488188977,
          "duration": 0.13117270833333272
        },
        {
          "name": "B4",
          "midi": 71,
          "time": 13.148134999999993,
          "velocity": 0.7244094488188977,
          "duration": 0.13117270833333272
        },
        {
          "name": "B3",
          "midi": 59,
          "time": 13.148134999999993,
          "velocity": 0.7244094488188977,
          "duration": 0.13117270833333272
        },
        {
          "name": "C6",
          "midi": 84,
          "time": 13.333319999999992,
          "velocity": 0.7244094488188977,
          "duration": 0.4938266666666671
        },
        {
          "name": "C5",
          "midi": 72,
          "time": 13.333319999999992,
          "velocity": 0.7244094488188977,
          "duration": 0.4938266666666671
        },
        {
          "name": "C4",
          "midi": 60,
          "time": 13.333319999999992,
          "velocity": 0.7244094488188977,
          "duration": 0.4938266666666671
        },
        {
          "name": "D6",
          "midi": 86,
          "time": 13.888874999999992,
          "velocity": 0.7244094488188977,
          "duration": 0.13117270833333272
        },
        {
          "name": "D5",
          "midi": 74,
          "time": 13.888874999999992,
          "velocity": 0.7244094488188977,
          "duration": 0.13117270833333272
        },
        {
          "name": "D4",
          "midi": 62,
          "time": 13.888874999999992,
          "velocity": 0.7244094488188977,
          "duration": 0.13117270833333272
        },
        {
          "name": "B5",
          "midi": 83,
          "time": 14.07405999999999,
          "velocity": 0.7244094488188977,
          "duration": 0.4938266666666671
        },
        {
          "name": "B4",
          "midi": 71,
          "time": 14.07405999999999,
          "velocity": 0.7244094488188977,
          "duration": 0.4938266666666671
        },
        {
          "name": "B3",
          "midi": 59,
          "time": 14.07405999999999,
          "velocity": 0.7244094488188977,
          "duration": 0.4938266666666671
        },
        {
          "name": "C6",
          "midi": 84,
          "time": 14.62961499999999,
          "velocity": 0.7244094488188977,
          "duration": 0.13117270833333272
        },
        {
          "name": "C5",
          "midi": 72,
          "time": 14.62961499999999,
          "velocity": 0.7244094488188977,
          "duration": 0.13117270833333272
        },
        {
          "name": "C4",
          "midi": 60,
          "time": 14.62961499999999,
          "velocity": 0.7244094488188977,
          "duration": 0.13117270833333272
        },
        {
          "name": "A5",
          "midi": 81,
          "time": 14.81479999999999,
          "velocity": 0.7244094488188977,
          "duration": 0.6481475000000003
        },
        {
          "name": "A4",
          "midi": 69,
          "time": 14.81479999999999,
          "velocity": 0.7244094488188977,
          "duration": 0.6481475000000003
        },
        {
          "name": "A3",
          "midi": 57,
          "time": 14.81479999999999,
          "velocity": 0.7244094488188977,
          "duration": 0.6481475000000003
        },
        {
          "name": "A5",
          "midi": 81,
          "time": 15.74072499999999,
          "velocity": 0.7244094488188977,
          "duration": 0.11959864583333335
        },
        {
          "name": "A4",
          "midi": 69,
          "time": 15.74072499999999,
          "velocity": 0.7244094488188977,
          "duration": 0.11959864583333335
        },
        {
          "name": "A3",
          "midi": 57,
          "time": 15.74072499999999,
          "velocity": 0.7244094488188977,
          "duration": 0.11959864583333335
        },
        {
          "name": "G#5",
          "midi": 80,
          "time": 15.864181666666656,
          "velocity": 0.7244094488188977,
          "duration": 0.05787031250000041
        },
        {
          "name": "G#4",
          "midi": 68,
          "time": 15.864181666666656,
          "velocity": 0.7244094488188977,
          "duration": 0.05787031250000041
        },
        {
          "name": "G#3",
          "midi": 56,
          "time": 15.864181666666656,
          "velocity": 0.7244094488188977,
          "duration": 0.05787031250000041
        },
        {
          "name": "A5",
          "midi": 81,
          "time": 15.92590999999999,
          "velocity": 0.7244094488188977,
          "duration": 0.11959864583333335
        },
        {
          "name": "A4",
          "midi": 69,
          "time": 15.92590999999999,
          "velocity": 0.7244094488188977,
          "duration": 0.11959864583333335
        },
        {
          "name": "A3",
          "midi": 57,
          "time": 15.92590999999999,
          "velocity": 0.7244094488188977,
          "duration": 0.11959864583333335
        },
        {
          "name": "B5",
          "midi": 83,
          "time": 16.049366666666657,
          "velocity": 0.7244094488188977,
          "duration": 0.05787031250000041
        },
        {
          "name": "B4",
          "midi": 71,
          "time": 16.049366666666657,
          "velocity": 0.7244094488188977,
          "duration": 0.05787031250000041
        },
        {
          "name": "B3",
          "midi": 59,
          "time": 16.049366666666657,
          "velocity": 0.7244094488188977,
          "duration": 0.05787031250000041
        },
        {
          "name": "C6",
          "midi": 84,
          "time": 16.11109499999999,
          "velocity": 0.7244094488188977,
          "duration": 0.11959864583333513
        },
        {
          "name": "C5",
          "midi": 72,
          "time": 16.11109499999999,
          "velocity": 0.7244094488188977,
          "duration": 0.11959864583333513
        },
        {
          "name": "C4",
          "midi": 60,
          "time": 16.11109499999999,
          "velocity": 0.7244094488188977,
          "duration": 0.11959864583333513
        },
        {
          "name": "D6",
          "midi": 86,
          "time": 16.23455166666666,
          "velocity": 0.7244094488188977,
          "duration": 0.05787031250000041
        },
        {
          "name": "D5",
          "midi": 74,
          "time": 16.23455166666666,
          "velocity": 0.7244094488188977,
          "duration": 0.05787031250000041
        },
        {
          "name": "D4",
          "midi": 62,
          "time": 16.23455166666666,
          "velocity": 0.7244094488188977,
          "duration": 0.05787031250000041
        },
        {
          "name": "E6",
          "midi": 88,
          "time": 16.296279999999996,
          "velocity": 0.7244094488188977,
          "duration": 0.23148125000000164
        },
        {
          "name": "E5",
          "midi": 76,
          "time": 16.296279999999996,
          "velocity": 0.7244094488188977,
          "duration": 0.23148125000000164
        },
        {
          "name": "E4",
          "midi": 64,
          "time": 16.296279999999996,
          "velocity": 0.7244094488188977,
          "duration": 0.23148125000000164
        },
        {
          "name": "E6",
          "midi": 88,
          "time": 16.666649999999997,
          "velocity": 0.7244094488188977,
          "duration": 0.23148125000000164
        },
        {
          "name": "E5",
          "midi": 76,
          "time": 16.666649999999997,
          "velocity": 0.7244094488188977,
          "duration": 0.23148125000000164
        },
        {
          "name": "E4",
          "midi": 64,
          "time": 16.666649999999997,
          "velocity": 0.7244094488188977,
          "duration": 0.23148125000000164
        },
        {
          "name": "E6",
          "midi": 88,
          "time": 17.03702,
          "velocity": 0.7244094488188977,
          "duration": 0.23148125000000164
        },
        {
          "name": "E5",
          "midi": 76,
          "time": 17.03702,
          "velocity": 0.7244094488188977,
          "duration": 0.23148125000000164
        },
        {
          "name": "E4",
          "midi": 64,
          "time": 17.03702,
          "velocity": 0.7244094488188977,
          "duration": 0.23148125000000164
        },
        {
          "name": "E6",
          "midi": 88,
          "time": 17.40739,
          "velocity": 0.7244094488188977,
          "duration": 0.23148125000000164
        },
        {
          "name": "E5",
          "midi": 76,
          "time": 17.40739,
          "velocity": 0.7244094488188977,
          "duration": 0.23148125000000164
        },
        {
          "name": "E4",
          "midi": 64,
          "time": 17.40739,
          "velocity": 0.7244094488188977,
          "duration": 0.23148125000000164
        },
        {
          "name": "E6",
          "midi": 88,
          "time": 17.77776,
          "velocity": 0.7244094488188977,
          "duration": 0.9220669791666651
        },
        {
          "name": "E5",
          "midi": 76,
          "time": 17.77776,
          "velocity": 0.7244094488188977,
          "duration": 0.9220669791666651
        },
        {
          "name": "E4",
          "midi": 64,
          "time": 17.77776,
          "velocity": 0.7244094488188977,
          "duration": 0.9220669791666651
        },
        {
          "name": "D6",
          "midi": 86,
          "time": 18.88887,
          "velocity": 0.7244094488188977,
          "duration": 0.1311727083333345
        },
        {
          "name": "D5",
          "midi": 74,
          "time": 18.88887,
          "velocity": 0.7244094488188977,
          "duration": 0.1311727083333345
        },
        {
          "name": "D4",
          "midi": 62,
          "time": 18.88887,
          "velocity": 0.7244094488188977,
          "duration": 0.1311727083333345
        },
        {
          "name": "E6",
          "midi": 88,
          "time": 19.074055,
          "velocity": 0.7244094488188977,
          "duration": 0.1311727083333345
        },
        {
          "name": "E5",
          "midi": 76,
          "time": 19.074055,
          "velocity": 0.7244094488188977,
          "duration": 0.1311727083333345
        },
        {
          "name": "E4",
          "midi": 64,
          "time": 19.074055,
          "velocity": 0.7244094488188977,
          "duration": 0.1311727083333345
        },
        {
          "name": "F6",
          "midi": 89,
          "time": 19.259240000000002,
          "velocity": 0.7244094488188977,
          "duration": 0.6481475000000003
        },
        {
          "name": "F5",
          "midi": 77,
          "time": 19.259240000000002,
          "velocity": 0.7244094488188977,
          "duration": 0.6481475000000003
        },
        {
          "name": "F4",
          "midi": 65,
          "time": 19.259240000000002,
          "velocity": 0.7244094488188977,
          "duration": 0.6481475000000003
        },
        {
          "name": "B5",
          "midi": 83,
          "time": 19.99998,
          "velocity": 0.7244094488188977,
          "duration": 0.3086416666666665
        },
        {
          "name": "B4",
          "midi": 71,
          "time": 19.99998,
          "velocity": 0.7244094488188977,
          "duration": 0.3086416666666665
        },
        {
          "name": "B3",
          "midi": 59,
          "time": 19.99998,
          "velocity": 0.7244094488188977,
          "duration": 0.3086416666666665
        },
        {
          "name": "C4",
          "midi": 60,
          "time": 20.370350000000002,
          "velocity": 0.7244094488188977,
          "duration": 0.1311727083333345
        },
        {
          "name": "C5",
          "midi": 72,
          "time": 20.370350000000002,
          "velocity": 0.7244094488188977,
          "duration": 0.1311727083333345
        },
        {
          "name": "C6",
          "midi": 84,
          "time": 20.370350000000002,
          "velocity": 0.7244094488188977,
          "duration": 0.1311727083333345
        },
        {
          "name": "D6",
          "midi": 86,
          "time": 20.555535000000003,
          "velocity": 0.7244094488188977,
          "duration": 0.1311727083333345
        },
        {
          "name": "D5",
          "midi": 74,
          "time": 20.555535000000003,
          "velocity": 0.7244094488188977,
          "duration": 0.1311727083333345
        },
        {
          "name": "D4",
          "midi": 62,
          "time": 20.555535000000003,
          "velocity": 0.7244094488188977,
          "duration": 0.1311727083333345
        },
        {
          "name": "E6",
          "midi": 88,
          "time": 20.740720000000003,
          "velocity": 0.7244094488188977,
          "duration": 0.6481475000000003
        },
        {
          "name": "E5",
          "midi": 76,
          "time": 20.740720000000003,
          "velocity": 0.7244094488188977,
          "duration": 0.6481475000000003
        },
        {
          "name": "E4",
          "midi": 64,
          "time": 20.740720000000003,
          "velocity": 0.7244094488188977,
          "duration": 0.6481475000000003
        },
        {
          "name": "A5",
          "midi": 81,
          "time": 21.481460000000002,
          "velocity": 0.7244094488188977,
          "duration": 0.3086416666666665
        },
        {
          "name": "A4",
          "midi": 69,
          "time": 21.481460000000002,
          "velocity": 0.7244094488188977,
          "duration": 0.3086416666666665
        },
        {
          "name": "A3",
          "midi": 57,
          "time": 21.481460000000002,
          "velocity": 0.7244094488188977,
          "duration": 0.3086416666666665
        },
        {
          "name": "A3",
          "midi": 57,
          "time": 21.851830000000003,
          "velocity": 0.7244094488188977,
          "duration": 0.1311727083333345
        },
        {
          "name": "A4",
          "midi": 69,
          "time": 21.851830000000003,
          "velocity": 0.7244094488188977,
          "duration": 0.1311727083333345
        },
        {
          "name": "A5",
          "midi": 81,
          "time": 21.851830000000003,
          "velocity": 0.7244094488188977,
          "duration": 0.1311727083333345
        },
        {
          "name": "B5",
          "midi": 83,
          "time": 22.037015000000004,
          "velocity": 0.7244094488188977,
          "duration": 0.1311727083333345
        },
        {
          "name": "B4",
          "midi": 71,
          "time": 22.037015000000004,
          "velocity": 0.7244094488188977,
          "duration": 0.1311727083333345
        },
        {
          "name": "B3",
          "midi": 59,
          "time": 22.037015000000004,
          "velocity": 0.7244094488188977,
          "duration": 0.1311727083333345
        },
        {
          "name": "C6",
          "midi": 84,
          "time": 22.222200000000004,
          "velocity": 0.7244094488188977,
          "duration": 0.4938266666666671
        },
        {
          "name": "C5",
          "midi": 72,
          "time": 22.222200000000004,
          "velocity": 0.7244094488188977,
          "duration": 0.4938266666666671
        },
        {
          "name": "C4",
          "midi": 60,
          "time": 22.222200000000004,
          "velocity": 0.7244094488188977,
          "duration": 0.4938266666666671
        },
        {
          "name": "D6",
          "midi": 86,
          "time": 22.777755000000006,
          "velocity": 0.7244094488188977,
          "duration": 0.1311727083333345
        },
        {
          "name": "D5",
          "midi": 74,
          "time": 22.777755000000006,
          "velocity": 0.7244094488188977,
          "duration": 0.1311727083333345
        },
        {
          "name": "D4",
          "midi": 62,
          "time": 22.777755000000006,
          "velocity": 0.7244094488188977,
          "duration": 0.1311727083333345
        },
        {
          "name": "B5",
          "midi": 83,
          "time": 22.962940000000007,
          "velocity": 0.7244094488188977,
          "duration": 0.4938266666666671
        },
        {
          "name": "B4",
          "midi": 71,
          "time": 22.962940000000007,
          "velocity": 0.7244094488188977,
          "duration": 0.4938266666666671
        },
        {
          "name": "B3",
          "midi": 59,
          "time": 22.962940000000007,
          "velocity": 0.7244094488188977,
          "duration": 0.4938266666666671
        },
        {
          "name": "C6",
          "midi": 84,
          "time": 23.51849500000001,
          "velocity": 0.7244094488188977,
          "duration": 0.1311727083333345
        },
        {
          "name": "C5",
          "midi": 72,
          "time": 23.51849500000001,
          "velocity": 0.7244094488188977,
          "duration": 0.1311727083333345
        },
        {
          "name": "C4",
          "midi": 60,
          "time": 23.51849500000001,
          "velocity": 0.7244094488188977,
          "duration": 0.1311727083333345
        },
        {
          "name": "A5",
          "midi": 81,
          "time": 23.70368000000001,
          "velocity": 0.7244094488188977,
          "duration": 0.6481475000000003
        },
        {
          "name": "A4",
          "midi": 69,
          "time": 23.70368000000001,
          "velocity": 0.7244094488188977,
          "duration": 0.6481475000000003
        },
        {
          "name": "A3",
          "midi": 57,
          "time": 23.70368000000001,
          "velocity": 0.7244094488188977,
          "duration": 0.6481475000000003
        },
        {
          "name": "E5",
          "midi": 76,
          "time": 37.03700000000001,
          "velocity": 0.33070866141732286,
          "duration": 0.4938266666666635
        },
        {
          "name": "D5",
          "midi": 74,
          "time": 37.59255500000001,
          "velocity": 0.33070866141732286,
          "duration": 0.08873447916666777
        },
        {
          "name": "C5",
          "midi": 72,
          "time": 37.685147500000014,
          "velocity": 0.33070866141732286,
          "duration": 0.08873447916666777
        },
        {
          "name": "B4",
          "midi": 71,
          "time": 37.777740000000016,
          "velocity": 0.33070866141732286,
          "duration": 0.08873447916666777
        },
        {
          "name": "E4",
          "midi": 64,
          "time": 37.87033250000002,
          "velocity": 0.23622047244094488,
          "duration": 0.06172833333333472
        },
        {
          "name": "C5",
          "midi": 72,
          "time": 37.96292500000002,
          "velocity": 0.33070866141732286,
          "duration": 0.08873447916666777
        },
        {
          "name": "E4",
          "midi": 64,
          "time": 38.05551750000002,
          "velocity": 0.23622047244094488,
          "duration": 0.06172833333333472
        },
        {
          "name": "D5",
          "midi": 74,
          "time": 38.148110000000024,
          "velocity": 0.33070866141732286,
          "duration": 0.06172833333333472
        },
        {
          "name": "E4",
          "midi": 64,
          "time": 38.33329500000003,
          "velocity": 0.23622047244094488,
          "duration": 0.06172833333333472
        },
        {
          "name": "C5",
          "midi": 72,
          "time": 38.51848000000003,
          "velocity": 0.33070866141732286,
          "duration": 0.08873447916666777
        },
        {
          "name": "E4",
          "midi": 64,
          "time": 38.611072500000034,
          "velocity": 0.23622047244094488,
          "duration": 0.06172833333333472
        },
        {
          "name": "B4",
          "midi": 71,
          "time": 38.703665000000036,
          "velocity": 0.33070866141732286,
          "duration": 0.06172833333333472
        },
        {
          "name": "A4",
          "midi": 69,
          "time": 38.88885000000004,
          "velocity": 0.33070866141732286,
          "duration": 0.06172833333333472
        },
        {
          "name": "G#4",
          "midi": 68,
          "time": 39.074035000000045,
          "velocity": 0.33070866141732286,
          "duration": 0.06172833333333472
        },
        {
          "name": "A4",
          "midi": 69,
          "time": 39.25922000000005,
          "velocity": 0.33070866141732286,
          "duration": 0.08873447916666777
        },
        {
          "name": "E4",
          "midi": 64,
          "time": 39.35181250000005,
          "velocity": 0.23622047244094488,
          "duration": 0.06172833333333472
        },
        {
          "name": "B4",
          "midi": 71,
          "time": 39.44440500000005,
          "velocity": 0.33070866141732286,
          "duration": 0.08873447916666777
        },
        {
          "name": "E4",
          "midi": 64,
          "time": 39.536997500000055,
          "velocity": 0.23622047244094488,
          "duration": 0.06172833333333472
        },
        {
          "name": "C5",
          "midi": 72,
          "time": 39.62959000000006,
          "velocity": 0.33070866141732286,
          "duration": 0.08873447916666777
        },
        {
          "name": "E4",
          "midi": 64,
          "time": 39.72218250000006,
          "velocity": 0.23622047244094488,
          "duration": 0.06172833333333472
        },
        {
          "name": "A4",
          "midi": 69,
          "time": 39.81477500000006,
          "velocity": 0.33070866141732286,
          "duration": 0.08873447916666777
        },
        {
          "name": "E4",
          "midi": 64,
          "time": 39.90736750000006,
          "velocity": 0.23622047244094488,
          "duration": 0.06172833333333472
        },
        {
          "name": "B4",
          "midi": 71,
          "time": 39.999960000000065,
          "velocity": 0.33070866141732286,
          "duration": 0.4938266666666635
        },
        {
          "name": "G4",
          "midi": 67,
          "time": 40.555515000000064,
          "velocity": 0.33070866141732286,
          "duration": 0.08873447916666777
        },
        {
          "name": "B4",
          "midi": 71,
          "time": 40.648107500000066,
          "velocity": 0.33070866141732286,
          "duration": 0.08873447916666777
        },
        {
          "name": "G5",
          "midi": 79,
          "time": 40.74070000000007,
          "velocity": 0.33070866141732286,
          "duration": 0.18132697916666984
        },
        {
          "name": "F5",
          "midi": 77,
          "time": 40.92588500000007,
          "velocity": 0.33070866141732286,
          "duration": 0.18132697916666984
        },
        {
          "name": "E5",
          "midi": 76,
          "time": 41.111070000000076,
          "velocity": 0.33070866141732286,
          "duration": 0.18132697916666984
        },
        {
          "name": "D5",
          "midi": 74,
          "time": 41.29625500000008,
          "velocity": 0.33070866141732286,
          "duration": 0.18132697916666984
        },
        {
          "name": "E5",
          "midi": 76,
          "time": 41.481440000000084,
          "velocity": 0.33070866141732286,
          "duration": 0.08873447916666777
        },
        {
          "name": "G4",
          "midi": 67,
          "time": 41.57403250000009,
          "velocity": 0.23622047244094488,
          "duration": 0.08873447916666777
        },
        {
          "name": "D5",
          "midi": 74,
          "time": 41.66662500000009,
          "velocity": 0.33070866141732286,
          "duration": 0.08873447916666777
        },
        {
          "name": "G4",
          "midi": 67,
          "time": 41.75921750000009,
          "velocity": 0.23622047244094488,
          "duration": 0.08873447916666777
        },
        {
          "name": "C5",
          "midi": 72,
          "time": 41.85181000000009,
          "velocity": 0.33070866141732286,
          "duration": 0.08873447916666777
        },
        {
          "name": "G4",
          "midi": 67,
          "time": 41.944402500000095,
          "velocity": 0.23622047244094488,
          "duration": 0.08873447916666777
        },
        {
          "name": "B4",
          "midi": 71,
          "time": 42.0369950000001,
          "velocity": 0.33070866141732286,
          "duration": 0.08873447916666777
        },
        {
          "name": "G4",
          "midi": 67,
          "time": 42.1295875000001,
          "velocity": 0.23622047244094488,
          "duration": 0.08873447916666777
        },
        {
          "name": "C5",
          "midi": 72,
          "time": 42.2221800000001,
          "velocity": 0.33070866141732286,
          "duration": 0.08873447916666777
        },
        {
          "name": "G4",
          "midi": 67,
          "time": 42.3147725000001,
          "velocity": 0.23622047244094488,
          "duration": 0.08873447916666777
        },
        {
          "name": "D5",
          "midi": 74,
          "time": 42.407365000000105,
          "velocity": 0.33070866141732286,
          "duration": 0.08873447916666777
        },
        {
          "name": "G4",
          "midi": 67,
          "time": 42.49995750000011,
          "velocity": 0.23622047244094488,
          "duration": 0.08873447916666777
        },
        {
          "name": "E5",
          "midi": 76,
          "time": 42.59255000000011,
          "velocity": 0.33070866141732286,
          "duration": 0.08873447916666777
        },
        {
          "name": "G4",
          "midi": 67,
          "time": 42.68514250000011,
          "velocity": 0.23622047244094488,
          "duration": 0.08873447916666777
        },
        {
          "name": "C5",
          "midi": 72,
          "time": 42.77773500000011,
          "velocity": 0.33070866141732286,
          "duration": 0.08873447916666777
        },
        {
          "name": "G4",
          "midi": 67,
          "time": 42.870327500000116,
          "velocity": 0.23622047244094488,
          "duration": 0.08873447916666777
        },
        {
          "name": "A#5",
          "midi": 82,
          "time": 42.96292000000012,
          "velocity": 0.33070866141732286,
          "duration": 0.4938266666666635
        },
        {
          "name": "G5",
          "midi": 79,
          "time": 43.518475000000116,
          "velocity": 0.23622047244094488,
          "duration": 0.06172833333333472
        },
        {
          "name": "A#5",
          "midi": 82,
          "time": 43.61106750000012,
          "velocity": 0.33070866141732286,
          "duration": 0.09259250000000208
        },
        {
          "name": "G5",
          "midi": 79,
          "time": 43.70366000000012,
          "velocity": 0.33070866141732286,
          "duration": 0.06558635416666903
        },
        {
          "name": "A#5",
          "midi": 82,
          "time": 43.79625250000012,
          "velocity": 0.33070866141732286,
          "duration": 0.06558635416666903
        },
        {
          "name": "E5",
          "midi": 76,
          "time": 43.888845000000124,
          "velocity": 0.33070866141732286,
          "duration": 0.06558635416666903
        },
        {
          "name": "G5",
          "midi": 79,
          "time": 43.981437500000126,
          "velocity": 0.33070866141732286,
          "duration": 0.06558635416666903
        },
        {
          "name": "C#5",
          "midi": 73,
          "time": 44.07403000000013,
          "velocity": 0.33070866141732286,
          "duration": 0.06558635416666903
        },
        {
          "name": "E5",
          "midi": 76,
          "time": 44.16662250000013,
          "velocity": 0.33070866141732286,
          "duration": 0.06558635416666903
        },
        {
          "name": "A4",
          "midi": 69,
          "time": 44.25921500000013,
          "velocity": 0.33070866141732286,
          "duration": 0.06558635416666903
        },
        {
          "name": "E5",
          "midi": 76,
          "time": 44.351807500000135,
          "velocity": 0.33070866141732286,
          "duration": 0.06558635416666903
        },
        {
          "name": "A5",
          "midi": 81,
          "time": 44.44440000000014,
          "velocity": 0.33070866141732286,
          "duration": 0.13117270833333095
        },
        {
          "name": "G5",
          "midi": 79,
          "time": 44.629585000000134,
          "velocity": 0.23622047244094488,
          "duration": 0.06558635416666903
        },
        {
          "name": "A5",
          "midi": 81,
          "time": 44.722177500000136,
          "velocity": 0.33070866141732286,
          "duration": 0.06558635416666903
        },
        {
          "name": "F5",
          "midi": 77,
          "time": 44.81477000000014,
          "velocity": 0.33070866141732286,
          "duration": 0.13117270833333095
        },
        {
          "name": "A5",
          "midi": 81,
          "time": 44.999955000000135,
          "velocity": 0.23622047244094488,
          "duration": 0.13117270833333095
        },
        {
          "name": "E5",
          "midi": 76,
          "time": 45.18514000000013,
          "velocity": 0.33070866141732286,
          "duration": 0.13117270833333095
        },
        {
          "name": "A5",
          "midi": 81,
          "time": 45.37032500000013,
          "velocity": 0.23622047244094488,
          "duration": 0.13117270833333095
        },
        {
          "name": "D5",
          "midi": 74,
          "time": 45.555510000000126,
          "velocity": 0.33070866141732286,
          "duration": 0.13117270833333095
        },
        {
          "name": "A5",
          "midi": 81,
          "time": 45.74069500000012,
          "velocity": 0.23622047244094488,
          "duration": 0.13117270833333095
        },
        {
          "name": "D#5",
          "midi": 75,
          "time": 45.92588000000012,
          "velocity": 0.33070866141732286,
          "duration": 0.4938266666666635
        },
        {
          "name": "B4",
          "midi": 71,
          "time": 46.48143500000012,
          "velocity": 0.23622047244094488,
          "duration": 0.05787031250000041
        },
        {
          "name": "D#5",
          "midi": 75,
          "time": 46.54316333333345,
          "velocity": 0.23622047244094488,
          "duration": 0.05787031250000041
        },
        {
          "name": "F#5",
          "midi": 78,
          "time": 46.60489166666679,
          "velocity": 0.23622047244094488,
          "duration": 0.05787031250000041
        },
        {
          "name": "C6",
          "midi": 84,
          "time": 46.66662000000012,
          "velocity": 0.33070866141732286,
          "duration": 0.18132697916666984
        },
        {
          "name": "B4",
          "midi": 71,
          "time": 46.85180500000013,
          "velocity": 0.33070866141732286,
          "duration": 0.18132697916666984
        },
        {
          "name": "B5",
          "midi": 83,
          "time": 47.03699000000013,
          "velocity": 0.33070866141732286,
          "duration": 0.18132697916666984
        },
        {
          "name": "A5",
          "midi": 81,
          "time": 47.222175000000135,
          "velocity": 0.33070866141732286,
          "duration": 0.18132697916666984
        },
        {
          "name": "E4",
          "midi": 64,
          "time": 47.40736000000014,
          "velocity": 0.33070866141732286,
          "duration": 0.08873447916666777
        },
        {
          "name": "G#4",
          "midi": 68,
          "time": 47.49995250000014,
          "velocity": 0.33070866141732286,
          "duration": 0.08873447916666777
        },
        {
          "name": "B4",
          "midi": 71,
          "time": 47.59254500000014,
          "velocity": 0.33070866141732286,
          "duration": 0.08873447916666777
        },
        {
          "name": "D5",
          "midi": 74,
          "time": 47.685137500000145,
          "velocity": 0.33070866141732286,
          "duration": 0.08873447916666777
        },
        {
          "name": "E5",
          "midi": 76,
          "time": 47.77773000000015,
          "velocity": 0.33070866141732286,
          "duration": 0.08873447916666777
        },
        {
          "name": "G#5",
          "midi": 80,
          "time": 47.87032250000015,
          "velocity": 0.33070866141732286,
          "duration": 0.08873447916666777
        },
        {
          "name": "B5",
          "midi": 83,
          "time": 47.96291500000015,
          "velocity": 0.33070866141732286,
          "duration": 0.08873447916666777
        },
        {
          "name": "D6",
          "midi": 86,
          "time": 48.055507500000154,
          "velocity": 0.33070866141732286,
          "duration": 0.08873447916666777
        },
        {
          "name": "E6",
          "midi": 88,
          "time": 48.148100000000156,
          "velocity": 0.33070866141732286,
          "duration": 0.08873447916666777
        },
        {
          "name": "B5",
          "midi": 83,
          "time": 48.24069250000016,
          "velocity": 0.33070866141732286,
          "duration": 0.08873447916666777
        },
        {
          "name": "G#5",
          "midi": 80,
          "time": 48.33328500000016,
          "velocity": 0.33070866141732286,
          "duration": 0.08873447916666777
        },
        {
          "name": "E5",
          "midi": 76,
          "time": 48.42587750000016,
          "velocity": 0.33070866141732286,
          "duration": 0.08873447916666777
        },
        {
          "name": "B4",
          "midi": 71,
          "time": 48.518470000000164,
          "velocity": 0.33070866141732286,
          "duration": 0.08873447916666777
        },
        {
          "name": "G#4",
          "midi": 68,
          "time": 48.611062500000166,
          "velocity": 0.33070866141732286,
          "duration": 0.08873447916666777
        },
        {
          "name": "E4",
          "midi": 64,
          "time": 48.70365500000017,
          "velocity": 0.33070866141732286,
          "duration": 0.08873447916666777
        },
        {
          "name": "G#4",
          "midi": 68,
          "time": 48.79624750000017,
          "velocity": 0.33070866141732286,
          "duration": 0.08873447916666777
        },
        {
          "name": "E6",
          "midi": 88,
          "time": 48.88884000000017,
          "velocity": 0.8503937007874016,
          "duration": 0.18132697916666984
        },
        {
          "name": "D6",
          "midi": 86,
          "time": 49.07402500000018,
          "velocity": 0.8503937007874016,
          "duration": 0.08873447916666777
        },
        {
          "name": "E6",
          "midi": 88,
          "time": 49.16661750000018,
          "velocity": 0.8503937007874016,
          "duration": 0.08873447916666777
        },
        {
          "name": "C6",
          "midi": 84,
          "time": 49.25921000000018,
          "velocity": 0.8503937007874016,
          "duration": 0.08873447916666777
        },
        {
          "name": "E6",
          "midi": 88,
          "time": 49.35180250000018,
          "velocity": 0.8503937007874016,
          "duration": 0.08873447916666777
        },
        {
          "name": "B5",
          "midi": 83,
          "time": 49.444395000000185,
          "velocity": 0.8503937007874016,
          "duration": 0.08873447916666777
        },
        {
          "name": "E6",
          "midi": 88,
          "time": 49.53698750000019,
          "velocity": 0.8503937007874016,
          "duration": 0.08873447916666777
        },
        {
          "name": "A5",
          "midi": 81,
          "time": 49.62958000000019,
          "velocity": 0.8503937007874016,
          "duration": 0.08873447916666777
        },
        {
          "name": "C5",
          "midi": 72,
          "time": 49.72217250000019,
          "velocity": 0.8503937007874016,
          "duration": 0.08873447916666777
        },
        {
          "name": "G5",
          "midi": 79,
          "time": 49.81476500000019,
          "velocity": 0.8503937007874016,
          "duration": 0.08873447916666777
        },
        {
          "name": "C5",
          "midi": 72,
          "time": 49.907357500000195,
          "velocity": 0.8503937007874016,
          "duration": 0.08873447916666777
        },
        {
          "name": "F5",
          "midi": 77,
          "time": 49.9999500000002,
          "velocity": 0.8503937007874016,
          "duration": 0.08873447916666777
        },
        {
          "name": "C5",
          "midi": 72,
          "time": 50.0925425000002,
          "velocity": 0.8503937007874016,
          "duration": 0.08873447916666777
        },
        {
          "name": "E5",
          "midi": 76,
          "time": 50.1851350000002,
          "velocity": 0.8503937007874016,
          "duration": 0.08873447916666777
        },
        {
          "name": "C5",
          "midi": 72,
          "time": 50.2777275000002,
          "velocity": 0.8503937007874016,
          "duration": 0.08873447916666777
        },
        {
          "name": "F5",
          "midi": 77,
          "time": 50.370320000000206,
          "velocity": 0.8503937007874016,
          "duration": 0.18132697916666984
        },
        {
          "name": "E5",
          "midi": 76,
          "time": 50.55550500000021,
          "velocity": 0.8503937007874016,
          "duration": 0.08873447916666777
        },
        {
          "name": "F5",
          "midi": 77,
          "time": 50.64809750000021,
          "velocity": 0.8503937007874016,
          "duration": 0.08873447916666777
        },
        {
          "name": "D5",
          "midi": 74,
          "time": 50.740690000000214,
          "velocity": 0.8503937007874016,
          "duration": 0.08873447916666777
        },
        {
          "name": "F5",
          "midi": 77,
          "time": 50.833282500000216,
          "velocity": 0.8503937007874016,
          "duration": 0.08873447916666777
        },
        {
          "name": "C5",
          "midi": 72,
          "time": 50.92587500000022,
          "velocity": 0.8503937007874016,
          "duration": 0.08873447916666777
        },
        {
          "name": "F5",
          "midi": 77,
          "time": 51.01846750000022,
          "velocity": 0.8503937007874016,
          "duration": 0.08873447916666777
        },
        {
          "name": "B4",
          "midi": 71,
          "time": 51.11106000000022,
          "velocity": 0.8503937007874016,
          "duration": 0.08873447916666777
        },
        {
          "name": "D4",
          "midi": 62,
          "time": 51.203652500000224,
          "velocity": 0.8503937007874016,
          "duration": 0.08873447916666777
        },
        {
          "name": "A4",
          "midi": 69,
          "time": 51.296245000000226,
          "velocity": 0.8503937007874016,
          "duration": 0.08873447916666777
        },
        {
          "name": "D4",
          "midi": 62,
          "time": 51.38883750000023,
          "velocity": 0.8503937007874016,
          "duration": 0.08873447916666777
        },
        {
          "name": "G4",
          "midi": 67,
          "time": 51.48143000000023,
          "velocity": 0.8503937007874016,
          "duration": 0.08873447916666777
        },
        {
          "name": "D4",
          "midi": 62,
          "time": 51.57402250000023,
          "velocity": 0.8503937007874016,
          "duration": 0.08873447916666777
        },
        {
          "name": "F4",
          "midi": 65,
          "time": 51.666615000000235,
          "velocity": 0.8503937007874016,
          "duration": 0.08873447916666777
        },
        {
          "name": "D4",
          "midi": 62,
          "time": 51.75920750000024,
          "velocity": 0.8503937007874016,
          "duration": 0.08873447916666777
        },
        {
          "name": "G4",
          "midi": 67,
          "time": 51.85180000000024,
          "velocity": 0.8503937007874016,
          "duration": 0.08873447916666777
        },
        {
          "name": "D4",
          "midi": 62,
          "time": 51.94439250000024,
          "velocity": 0.8503937007874016,
          "duration": 0.08873447916666777
        },
        {
          "name": "A4",
          "midi": 69,
          "time": 52.03698500000024,
          "velocity": 0.8503937007874016,
          "duration": 0.08873447916666777
        },
        {
          "name": "D4",
          "midi": 62,
          "time": 52.129577500000245,
          "velocity": 0.8503937007874016,
          "duration": 0.08873447916666777
        },
        {
          "name": "B4",
          "midi": 71,
          "time": 52.22217000000025,
          "velocity": 0.8503937007874016,
          "duration": 0.08873447916666777
        },
        {
          "name": "D4",
          "midi": 62,
          "time": 52.31476250000025,
          "velocity": 0.8503937007874016,
          "duration": 0.08873447916666777
        },
        {
          "name": "C5",
          "midi": 72,
          "time": 52.40735500000025,
          "velocity": 0.8503937007874016,
          "duration": 0.08873447916666777
        },
        {
          "name": "D4",
          "midi": 62,
          "time": 52.49994750000025,
          "velocity": 0.8503937007874016,
          "duration": 0.08873447916666777
        },
        {
          "name": "D5",
          "midi": 74,
          "time": 52.592540000000255,
          "velocity": 0.8503937007874016,
          "duration": 0.08873447916666777
        },
        {
          "name": "D4",
          "midi": 62,
          "time": 52.68513250000026,
          "velocity": 0.8503937007874016,
          "duration": 0.08873447916666777
        },
        {
          "name": "B4",
          "midi": 71,
          "time": 52.77772500000026,
          "velocity": 0.8503937007874016,
          "duration": 0.08873447916666777
        },
        {
          "name": "D4",
          "midi": 62,
          "time": 52.87031750000026,
          "velocity": 0.8503937007874016,
          "duration": 0.08873447916666777
        },
        {
          "name": "A4",
          "midi": 69,
          "time": 52.962910000000264,
          "velocity": 0.8503937007874016,
          "duration": 0.08873447916666777
        },
        {
          "name": "D4",
          "midi": 62,
          "time": 53.055502500000266,
          "velocity": 0.8503937007874016,
          "duration": 0.08873447916666777
        },
        {
          "name": "G4",
          "midi": 67,
          "time": 53.14809500000027,
          "velocity": 0.8503937007874016,
          "duration": 0.08873447916666777
        },
        {
          "name": "D4",
          "midi": 62,
          "time": 53.24068750000027,
          "velocity": 0.8503937007874016,
          "duration": 0.08873447916666777
        },
        {
          "name": "C4",
          "midi": 60,
          "time": 53.33328000000027,
          "velocity": 0.8503937007874016,
          "duration": 0.08873447916666777
        },
        {
          "name": "D4",
          "midi": 62,
          "time": 53.425872500000274,
          "velocity": 0.8503937007874016,
          "duration": 0.08873447916666777
        },
        {
          "name": "E4",
          "midi": 64,
          "time": 53.518465000000276,
          "velocity": 0.8503937007874016,
          "duration": 0.08873447916666777
        },
        {
          "name": "G4",
          "midi": 67,
          "time": 53.61105750000028,
          "velocity": 0.8503937007874016,
          "duration": 0.08873447916666777
        },
        {
          "name": "C5",
          "midi": 72,
          "time": 53.70365000000028,
          "velocity": 0.8503937007874016,
          "duration": 0.08873447916666777
        },
        {
          "name": "D5",
          "midi": 74,
          "time": 53.79624250000028,
          "velocity": 0.8503937007874016,
          "duration": 0.08873447916666777
        },
        {
          "name": "E5",
          "midi": 76,
          "time": 53.888835000000284,
          "velocity": 0.8503937007874016,
          "duration": 0.08873447916666777
        },
        {
          "name": "G5",
          "midi": 79,
          "time": 53.98142750000029,
          "velocity": 0.8503937007874016,
          "duration": 0.08873447916666777
        },
        {
          "name": "E6",
          "midi": 88,
          "time": 54.07402000000029,
          "velocity": 0.8503937007874016,
          "duration": 0.08873447916666777
        },
        {
          "name": "D6",
          "midi": 86,
          "time": 54.16661250000029,
          "velocity": 0.8503937007874016,
          "duration": 0.08873447916666777
        },
        {
          "name": "C6",
          "midi": 84,
          "time": 54.25920500000029,
          "velocity": 0.8503937007874016,
          "duration": 0.08873447916666777
        },
        {
          "name": "G5",
          "midi": 79,
          "time": 54.351797500000295,
          "velocity": 0.8503937007874016,
          "duration": 0.08873447916666777
        },
        {
          "name": "E5",
          "midi": 76,
          "time": 54.4443900000003,
          "velocity": 0.8503937007874016,
          "duration": 0.08873447916666777
        },
        {
          "name": "D5",
          "midi": 74,
          "time": 54.5369825000003,
          "velocity": 0.8503937007874016,
          "duration": 0.08873447916666777
        },
        {
          "name": "C5",
          "midi": 72,
          "time": 54.6295750000003,
          "velocity": 0.8503937007874016,
          "duration": 0.08873447916666777
        },
        {
          "name": "G4",
          "midi": 67,
          "time": 54.7221675000003,
          "velocity": 0.8503937007874016,
          "duration": 0.08873447916666777
        },
        {
          "name": "C5",
          "midi": 72,
          "time": 54.814760000000305,
          "velocity": 0.8503937007874016,
          "duration": 0.18132697916666984
        },
        {
          "name": "B4",
          "midi": 71,
          "time": 54.99994500000031,
          "velocity": 0.8503937007874016,
          "duration": 0.08873447916666777
        },
        {
          "name": "C5",
          "midi": 72,
          "time": 55.09253750000031,
          "velocity": 0.8503937007874016,
          "duration": 0.08873447916666777
        },
        {
          "name": "A4",
          "midi": 69,
          "time": 55.18513000000031,
          "velocity": 0.8503937007874016,
          "duration": 0.08873447916666777
        },
        {
          "name": "C5",
          "midi": 72,
          "time": 55.277722500000316,
          "velocity": 0.8503937007874016,
          "duration": 0.08873447916666777
        },
        {
          "name": "G4",
          "midi": 67,
          "time": 55.37031500000032,
          "velocity": 0.8503937007874016,
          "duration": 0.08873447916666777
        },
        {
          "name": "C5",
          "midi": 72,
          "time": 55.46290750000032,
          "velocity": 0.8503937007874016,
          "duration": 0.08873447916666777
        },
        {
          "name": "F4",
          "midi": 65,
          "time": 55.55550000000032,
          "velocity": 0.8503937007874016,
          "duration": 0.08873447916666777
        },
        {
          "name": "C5",
          "midi": 72,
          "time": 55.648092500000324,
          "velocity": 0.8503937007874016,
          "duration": 0.08873447916666777
        },
        {
          "name": "E4",
          "midi": 64,
          "time": 55.740685000000326,
          "velocity": 0.8503937007874016,
          "duration": 0.08873447916666777
        },
        {
          "name": "C5",
          "midi": 72,
          "time": 55.83327750000033,
          "velocity": 0.8503937007874016,
          "duration": 0.08873447916666777
        },
        {
          "name": "D4",
          "midi": 62,
          "time": 55.92587000000033,
          "velocity": 0.8503937007874016,
          "duration": 0.08873447916666777
        },
        {
          "name": "C5",
          "midi": 72,
          "time": 56.01846250000033,
          "velocity": 0.8503937007874016,
          "duration": 0.08873447916666777
        },
        {
          "name": "C4",
          "midi": 60,
          "time": 56.111055000000334,
          "velocity": 0.8503937007874016,
          "duration": 0.08873447916666777
        },
        {
          "name": "C5",
          "midi": 72,
          "time": 56.203647500000336,
          "velocity": 0.8503937007874016,
          "duration": 0.08873447916666777
        },
        {
          "name": "D5",
          "midi": 74,
          "time": 56.29624000000034,
          "velocity": 0.8503937007874016,
          "duration": 0.18132697916666984
        },
        {
          "name": "C5",
          "midi": 72,
          "time": 56.48142500000034,
          "velocity": 0.8503937007874016,
          "duration": 0.08873447916666777
        },
        {
          "name": "D5",
          "midi": 74,
          "time": 56.574017500000345,
          "velocity": 0.8503937007874016,
          "duration": 0.08873447916666777
        },
        {
          "name": "B4",
          "midi": 71,
          "time": 56.66661000000035,
          "velocity": 0.8503937007874016,
          "duration": 0.08873447916666777
        },
        {
          "name": "D5",
          "midi": 74,
          "time": 56.75920250000035,
          "velocity": 0.8503937007874016,
          "duration": 0.08873447916666777
        },
        {
          "name": "A4",
          "midi": 69,
          "time": 56.85179500000035,
          "velocity": 0.8503937007874016,
          "duration": 0.08873447916666777
        },
        {
          "name": "D5",
          "midi": 74,
          "time": 56.94438750000035,
          "velocity": 0.8503937007874016,
          "duration": 0.08873447916666777
        },
        {
          "name": "G4",
          "midi": 67,
          "time": 57.036980000000355,
          "velocity": 0.8503937007874016,
          "duration": 0.08873447916666777
        },
        {
          "name": "D5",
          "midi": 74,
          "time": 57.12957250000036,
          "velocity": 0.8503937007874016,
          "duration": 0.08873447916666777
        },
        {
          "name": "F4",
          "midi": 65,
          "time": 57.22216500000036,
          "velocity": 0.8503937007874016,
          "duration": 0.08873447916666777
        },
        {
          "name": "D5",
          "midi": 74,
          "time": 57.31475750000036,
          "velocity": 0.8503937007874016,
          "duration": 0.08873447916666777
        },
        {
          "name": "E4",
          "midi": 64,
          "time": 57.40735000000036,
          "velocity": 0.8503937007874016,
          "duration": 0.08873447916666777
        },
        {
          "name": "D5",
          "midi": 74,
          "time": 57.499942500000365,
          "velocity": 0.8503937007874016,
          "duration": 0.08873447916666777
        },
        {
          "name": "D4",
          "midi": 62,
          "time": 57.59253500000037,
          "velocity": 0.8503937007874016,
          "duration": 0.08873447916666777
        },
        {
          "name": "D5",
          "midi": 74,
          "time": 57.68512750000037,
          "velocity": 0.8503937007874016,
          "duration": 0.08873447916666777
        },
        {
          "name": "E4",
          "midi": 64,
          "time": 57.77772000000037,
          "velocity": 0.8503937007874016,
          "duration": 0.08873447916666777
        },
        {
          "name": "G#4",
          "midi": 68,
          "time": 57.870312500000374,
          "velocity": 0.8503937007874016,
          "duration": 0.08873447916666777
        },
        {
          "name": "B4",
          "midi": 71,
          "time": 57.962905000000376,
          "velocity": 0.8503937007874016,
          "duration": 0.08873447916666777
        },
        {
          "name": "D5",
          "midi": 74,
          "time": 58.05549750000038,
          "velocity": 0.8503937007874016,
          "duration": 0.08873447916666777
        },
        {
          "name": "E5",
          "midi": 76,
          "time": 58.14809000000038,
          "velocity": 0.8503937007874016,
          "duration": 0.08873447916666777
        },
        {
          "name": "G#5",
          "midi": 80,
          "time": 58.24068250000038,
          "velocity": 0.8503937007874016,
          "duration": 0.08873447916666777
        },
        {
          "name": "B5",
          "midi": 83,
          "time": 58.333275000000384,
          "velocity": 0.8503937007874016,
          "duration": 0.08873447916666777
        },
        {
          "name": "D6",
          "midi": 86,
          "time": 58.425867500000386,
          "velocity": 0.8503937007874016,
          "duration": 0.08873447916666777
        },
        {
          "name": "E6",
          "midi": 88,
          "time": 58.51846000000039,
          "velocity": 0.8503937007874016,
          "duration": 0.08873447916666777
        },
        {
          "name": "D6",
          "midi": 86,
          "time": 58.61105250000039,
          "velocity": 0.8503937007874016,
          "duration": 0.08873447916666777
        },
        {
          "name": "B5",
          "midi": 83,
          "time": 58.70364500000039,
          "velocity": 0.8503937007874016,
          "duration": 0.08873447916666777
        },
        {
          "name": "G#5",
          "midi": 80,
          "time": 58.796237500000395,
          "velocity": 0.8503937007874016,
          "duration": 0.08873447916666777
        },
        {
          "name": "E5",
          "midi": 76,
          "time": 58.8888300000004,
          "velocity": 0.8503937007874016,
          "duration": 0.08873447916666777
        },
        {
          "name": "D5",
          "midi": 74,
          "time": 58.9814225000004,
          "velocity": 0.8503937007874016,
          "duration": 0.08873447916666777
        },
        {
          "name": "B4",
          "midi": 71,
          "time": 59.0740150000004,
          "velocity": 0.8503937007874016,
          "duration": 0.08873447916666777
        },
        {
          "name": "G#4",
          "midi": 68,
          "time": 59.1666075000004,
          "velocity": 0.8503937007874016,
          "duration": 0.08873447916666777
        },
        {
          "name": "A4",
          "midi": 69,
          "time": 59.259200000000405,
          "velocity": 0.8503937007874016,
          "duration": 0.08873447916666777
        },
        {
          "name": "C5",
          "midi": 72,
          "time": 59.35179250000041,
          "velocity": 0.8503937007874016,
          "duration": 0.08873447916666777
        },
        {
          "name": "E5",
          "midi": 76,
          "time": 59.44438500000041,
          "velocity": 0.8503937007874016,
          "duration": 0.08873447916666777
        },
        {
          "name": "A5",
          "midi": 81,
          "time": 59.53697750000041,
          "velocity": 0.8503937007874016,
          "duration": 0.08873447916666777
        },
        {
          "name": "C6",
          "midi": 84,
          "time": 59.62957000000041,
          "velocity": 0.8503937007874016,
          "duration": 0.08873447916666777
        },
        {
          "name": "B5",
          "midi": 83,
          "time": 59.722162500000415,
          "velocity": 0.8503937007874016,
          "duration": 0.08873447916666777
        },
        {
          "name": "A5",
          "midi": 81,
          "time": 59.81475500000042,
          "velocity": 0.8503937007874016,
          "duration": 0.08873447916666777
        },
        {
          "name": "G#5",
          "midi": 80,
          "time": 59.90734750000042,
          "velocity": 0.8503937007874016,
          "duration": 0.08873447916666777
        },
        {
          "name": "A5",
          "midi": 81,
          "time": 59.99994000000042,
          "velocity": 0.8503937007874016,
          "duration": 0.13117270833333095
        },
        {
          "name": "G5",
          "midi": 79,
          "time": 61.666605000000416,
          "velocity": 0.8503937007874016,
          "duration": 0.13117270833333095
        },
        {
          "name": "G4",
          "midi": 67,
          "time": 61.666605000000416,
          "velocity": 0.8503937007874016,
          "duration": 0.13117270833333095
        },
        {
          "name": "G3",
          "midi": 55,
          "time": 61.666605000000416,
          "velocity": 0.8503937007874016,
          "duration": 0.13117270833333095
        },
        {
          "name": "C6",
          "midi": 84,
          "time": 61.85179000000041,
          "velocity": 0.8503937007874016,
          "duration": 0.13117270833333095
        },
        {
          "name": "C5",
          "midi": 72,
          "time": 61.85179000000041,
          "velocity": 0.8503937007874016,
          "duration": 0.13117270833333095
        },
        {
          "name": "C4",
          "midi": 60,
          "time": 61.85179000000041,
          "velocity": 0.8503937007874016,
          "duration": 0.13117270833333095
        },
        {
          "name": "D6",
          "midi": 86,
          "time": 62.03697500000041,
          "velocity": 0.8503937007874016,
          "duration": 0.13117270833333095
        },
        {
          "name": "D5",
          "midi": 74,
          "time": 62.03697500000041,
          "velocity": 0.8503937007874016,
          "duration": 0.13117270833333095
        },
        {
          "name": "D4",
          "midi": 62,
          "time": 62.03697500000041,
          "velocity": 0.8503937007874016,
          "duration": 0.13117270833333095
        },
        {
          "name": "D#6",
          "midi": 87,
          "time": 62.22216000000041,
          "velocity": 0.8503937007874016,
          "duration": 0.4938266666666635
        },
        {
          "name": "D#5",
          "midi": 75,
          "time": 62.22216000000041,
          "velocity": 0.8503937007874016,
          "duration": 0.4938266666666635
        },
        {
          "name": "D#4",
          "midi": 63,
          "time": 62.22216000000041,
          "velocity": 0.8503937007874016,
          "duration": 0.4938266666666635
        },
        {
          "name": "F6",
          "midi": 89,
          "time": 62.777715000000406,
          "velocity": 0.8503937007874016,
          "duration": 0.13117270833333095
        },
        {
          "name": "F5",
          "midi": 77,
          "time": 62.777715000000406,
          "velocity": 0.8503937007874016,
          "duration": 0.13117270833333095
        },
        {
          "name": "F4",
          "midi": 65,
          "time": 62.777715000000406,
          "velocity": 0.8503937007874016,
          "duration": 0.13117270833333095
        },
        {
          "name": "D6",
          "midi": 86,
          "time": 62.9629000000004,
          "velocity": 0.8503937007874016,
          "duration": 0.4938266666666635
        },
        {
          "name": "D5",
          "midi": 74,
          "time": 62.9629000000004,
          "velocity": 0.8503937007874016,
          "duration": 0.4938266666666635
        },
        {
          "name": "D4",
          "midi": 62,
          "time": 62.9629000000004,
          "velocity": 0.8503937007874016,
          "duration": 0.4938266666666635
        },
        {
          "name": "D#6",
          "midi": 87,
          "time": 63.5184550000004,
          "velocity": 0.8503937007874016,
          "duration": 0.13117270833333095
        },
        {
          "name": "D#5",
          "midi": 75,
          "time": 63.5184550000004,
          "velocity": 0.8503937007874016,
          "duration": 0.13117270833333095
        },
        {
          "name": "D#4",
          "midi": 63,
          "time": 63.5184550000004,
          "velocity": 0.8503937007874016,
          "duration": 0.13117270833333095
        },
        {
          "name": "C6",
          "midi": 84,
          "time": 63.7036400000004,
          "velocity": 0.8503937007874016,
          "duration": 0.6481475000000003
        },
        {
          "name": "C5",
          "midi": 72,
          "time": 63.7036400000004,
          "velocity": 0.8503937007874016,
          "duration": 0.6481475000000003
        },
        {
          "name": "C4",
          "midi": 60,
          "time": 63.7036400000004,
          "velocity": 0.8503937007874016,
          "duration": 0.6481475000000003
        },
        {
          "name": "C6",
          "midi": 84,
          "time": 64.6295650000004,
          "velocity": 0.8503937007874016,
          "duration": 0.11959864583333513
        },
        {
          "name": "C5",
          "midi": 72,
          "time": 64.6295650000004,
          "velocity": 0.8503937007874016,
          "duration": 0.11959864583333513
        },
        {
          "name": "C4",
          "midi": 60,
          "time": 64.6295650000004,
          "velocity": 0.8503937007874016,
          "duration": 0.11959864583333513
        },
        {
          "name": "B5",
          "midi": 83,
          "time": 64.75302166666707,
          "velocity": 0.8503937007874016,
          "duration": 0.05787031250000041
        },
        {
          "name": "B4",
          "midi": 71,
          "time": 64.75302166666707,
          "velocity": 0.8503937007874016,
          "duration": 0.05787031250000041
        },
        {
          "name": "B3",
          "midi": 59,
          "time": 64.75302166666707,
          "velocity": 0.8503937007874016,
          "duration": 0.05787031250000041
        },
        {
          "name": "C6",
          "midi": 84,
          "time": 64.8147500000004,
          "velocity": 0.8503937007874016,
          "duration": 0.11959864583333513
        },
        {
          "name": "C5",
          "midi": 72,
          "time": 64.8147500000004,
          "velocity": 0.8503937007874016,
          "duration": 0.11959864583333513
        },
        {
          "name": "C4",
          "midi": 60,
          "time": 64.8147500000004,
          "velocity": 0.8503937007874016,
          "duration": 0.11959864583333513
        },
        {
          "name": "D6",
          "midi": 86,
          "time": 64.93820666666707,
          "velocity": 0.8503937007874016,
          "duration": 0.05787031250000041
        },
        {
          "name": "D5",
          "midi": 74,
          "time": 64.93820666666707,
          "velocity": 0.8503937007874016,
          "duration": 0.05787031250000041
        },
        {
          "name": "D4",
          "midi": 62,
          "time": 64.93820666666707,
          "velocity": 0.8503937007874016,
          "duration": 0.05787031250000041
        },
        {
          "name": "D#6",
          "midi": 87,
          "time": 64.9999350000004,
          "velocity": 0.8503937007874016,
          "duration": 0.11959864583333513
        },
        {
          "name": "D#5",
          "midi": 75,
          "time": 64.9999350000004,
          "velocity": 0.8503937007874016,
          "duration": 0.11959864583333513
        },
        {
          "name": "D#4",
          "midi": 63,
          "time": 64.9999350000004,
          "velocity": 0.8503937007874016,
          "duration": 0.11959864583333513
        },
        {
          "name": "F6",
          "midi": 89,
          "time": 65.12339166666708,
          "velocity": 0.8503937007874016,
          "duration": 0.05787031250000041
        },
        {
          "name": "F5",
          "midi": 77,
          "time": 65.12339166666708,
          "velocity": 0.8503937007874016,
          "duration": 0.05787031250000041
        },
        {
          "name": "F4",
          "midi": 65,
          "time": 65.12339166666708,
          "velocity": 0.8503937007874016,
          "duration": 0.05787031250000041
        },
        {
          "name": "G6",
          "midi": 91,
          "time": 65.18512000000041,
          "velocity": 0.8503937007874016,
          "duration": 0.23148125000000164
        },
        {
          "name": "G5",
          "midi": 79,
          "time": 65.18512000000041,
          "velocity": 0.8503937007874016,
          "duration": 0.23148125000000164
        },
        {
          "name": "G4",
          "midi": 67,
          "time": 65.18512000000041,
          "velocity": 0.8503937007874016,
          "duration": 0.23148125000000164
        },
        {
          "name": "G6",
          "midi": 91,
          "time": 65.55549000000042,
          "velocity": 0.8503937007874016,
          "duration": 0.23148125000000164
        },
        {
          "name": "G5",
          "midi": 79,
          "time": 65.55549000000042,
          "velocity": 0.8503937007874016,
          "duration": 0.23148125000000164
        },
        {
          "name": "G4",
          "midi": 67,
          "time": 65.55549000000042,
          "velocity": 0.8503937007874016,
          "duration": 0.23148125000000164
        },
        {
          "name": "G6",
          "midi": 91,
          "time": 65.92586000000043,
          "velocity": 0.8503937007874016,
          "duration": 0.23148125000000164
        },
        {
          "name": "G5",
          "midi": 79,
          "time": 65.92586000000043,
          "velocity": 0.8503937007874016,
          "duration": 0.23148125000000164
        },
        {
          "name": "G4",
          "midi": 67,
          "time": 65.92586000000043,
          "velocity": 0.8503937007874016,
          "duration": 0.23148125000000164
        },
        {
          "name": "G6",
          "midi": 91,
          "time": 66.29623000000043,
          "velocity": 0.8503937007874016,
          "duration": 0.23148125000000164
        },
        {
          "name": "G5",
          "midi": 79,
          "time": 66.29623000000043,
          "velocity": 0.8503937007874016,
          "duration": 0.23148125000000164
        },
        {
          "name": "G4",
          "midi": 67,
          "time": 66.29623000000043,
          "velocity": 0.8503937007874016,
          "duration": 0.23148125000000164
        },
        {
          "name": "G6",
          "midi": 91,
          "time": 66.66660000000044,
          "velocity": 0.8503937007874016,
          "duration": 0.9220669791666722
        },
        {
          "name": "G5",
          "midi": 79,
          "time": 66.66660000000044,
          "velocity": 0.8503937007874016,
          "duration": 0.9220669791666722
        },
        {
          "name": "G4",
          "midi": 67,
          "time": 66.66660000000044,
          "velocity": 0.8503937007874016,
          "duration": 0.9220669791666722
        },
        {
          "name": "F6",
          "midi": 89,
          "time": 67.77771000000045,
          "velocity": 0.8503937007874016,
          "duration": 0.13117270833333805
        },
        {
          "name": "F5",
          "midi": 77,
          "time": 67.77771000000045,
          "velocity": 0.8503937007874016,
          "duration": 0.13117270833333805
        },
        {
          "name": "F4",
          "midi": 65,
          "time": 67.77771000000045,
          "velocity": 0.8503937007874016,
          "duration": 0.13117270833333805
        },
        {
          "name": "G6",
          "midi": 91,
          "time": 67.96289500000046,
          "velocity": 0.8503937007874016,
          "duration": 0.13117270833333805
        },
        {
          "name": "G5",
          "midi": 79,
          "time": 67.96289500000046,
          "velocity": 0.8503937007874016,
          "duration": 0.13117270833333805
        },
        {
          "name": "G4",
          "midi": 67,
          "time": 67.96289500000046,
          "velocity": 0.8503937007874016,
          "duration": 0.13117270833333805
        },
        {
          "name": "G#6",
          "midi": 92,
          "time": 68.14808000000046,
          "velocity": 0.8503937007874016,
          "duration": 0.6481474999999932
        },
        {
          "name": "G#5",
          "midi": 80,
          "time": 68.14808000000046,
          "velocity": 0.8503937007874016,
          "duration": 0.6481474999999932
        },
        {
          "name": "G#4",
          "midi": 68,
          "time": 68.14808000000046,
          "velocity": 0.8503937007874016,
          "duration": 0.6481474999999932
        },
        {
          "name": "D6",
          "midi": 86,
          "time": 68.88882000000045,
          "velocity": 0.8503937007874016,
          "duration": 0.3086416666666736
        },
        {
          "name": "D5",
          "midi": 74,
          "time": 68.88882000000045,
          "velocity": 0.8503937007874016,
          "duration": 0.3086416666666736
        },
        {
          "name": "D4",
          "midi": 62,
          "time": 68.88882000000045,
          "velocity": 0.8503937007874016,
          "duration": 0.3086416666666736
        },
        {
          "name": "D#6",
          "midi": 87,
          "time": 69.25919000000046,
          "velocity": 0.8503937007874016,
          "duration": 0.13117270833333805
        },
        {
          "name": "D#5",
          "midi": 75,
          "time": 69.25919000000046,
          "velocity": 0.8503937007874016,
          "duration": 0.13117270833333805
        },
        {
          "name": "D#4",
          "midi": 63,
          "time": 69.25919000000046,
          "velocity": 0.8503937007874016,
          "duration": 0.13117270833333805
        },
        {
          "name": "F6",
          "midi": 89,
          "time": 69.44437500000046,
          "velocity": 0.8503937007874016,
          "duration": 0.13117270833333805
        },
        {
          "name": "F5",
          "midi": 77,
          "time": 69.44437500000046,
          "velocity": 0.8503937007874016,
          "duration": 0.13117270833333805
        },
        {
          "name": "F4",
          "midi": 65,
          "time": 69.44437500000046,
          "velocity": 0.8503937007874016,
          "duration": 0.13117270833333805
        },
        {
          "name": "G6",
          "midi": 91,
          "time": 69.62956000000047,
          "velocity": 0.8503937007874016,
          "duration": 0.6481474999999932
        },
        {
          "name": "G5",
          "midi": 79,
          "time": 69.62956000000047,
          "velocity": 0.8503937007874016,
          "duration": 0.6481474999999932
        },
        {
          "name": "G4",
          "midi": 67,
          "time": 69.62956000000047,
          "velocity": 0.8503937007874016,
          "duration": 0.6481474999999932
        },
        {
          "name": "C6",
          "midi": 84,
          "time": 70.37030000000046,
          "velocity": 0.8503937007874016,
          "duration": 0.3086416666666736
        },
        {
          "name": "C5",
          "midi": 72,
          "time": 70.37030000000046,
          "velocity": 0.8503937007874016,
          "duration": 0.3086416666666736
        },
        {
          "name": "C4",
          "midi": 60,
          "time": 70.37030000000046,
          "velocity": 0.8503937007874016,
          "duration": 0.3086416666666736
        },
        {
          "name": "C6",
          "midi": 84,
          "time": 70.74067000000046,
          "velocity": 0.8503937007874016,
          "duration": 0.13117270833333805
        },
        {
          "name": "C5",
          "midi": 72,
          "time": 70.74067000000046,
          "velocity": 0.8503937007874016,
          "duration": 0.13117270833333805
        },
        {
          "name": "C4",
          "midi": 60,
          "time": 70.74067000000046,
          "velocity": 0.8503937007874016,
          "duration": 0.13117270833333805
        },
        {
          "name": "D6",
          "midi": 86,
          "time": 70.92585500000047,
          "velocity": 0.8503937007874016,
          "duration": 0.13117270833333805
        },
        {
          "name": "D5",
          "midi": 74,
          "time": 70.92585500000047,
          "velocity": 0.8503937007874016,
          "duration": 0.13117270833333805
        },
        {
          "name": "D4",
          "midi": 62,
          "time": 70.92585500000047,
          "velocity": 0.8503937007874016,
          "duration": 0.13117270833333805
        },
        {
          "name": "D#6",
          "midi": 87,
          "time": 71.11104000000047,
          "velocity": 0.8503937007874016,
          "duration": 0.4938266666666635
        },
        {
          "name": "D#5",
          "midi": 75,
          "time": 71.11104000000047,
          "velocity": 0.8503937007874016,
          "duration": 0.4938266666666635
        },
        {
          "name": "D#4",
          "midi": 63,
          "time": 71.11104000000047,
          "velocity": 0.8503937007874016,
          "duration": 0.4938266666666635
        },
        {
          "name": "F6",
          "midi": 89,
          "time": 71.66659500000047,
          "velocity": 0.8503937007874016,
          "duration": 0.13117270833333805
        },
        {
          "name": "F5",
          "midi": 77,
          "time": 71.66659500000047,
          "velocity": 0.8503937007874016,
          "duration": 0.13117270833333805
        },
        {
          "name": "F4",
          "midi": 65,
          "time": 71.66659500000047,
          "velocity": 0.8503937007874016,
          "duration": 0.13117270833333805
        },
        {
          "name": "D6",
          "midi": 86,
          "time": 71.85178000000047,
          "velocity": 0.8503937007874016,
          "duration": 0.4938266666666635
        },
        {
          "name": "D5",
          "midi": 74,
          "time": 71.85178000000047,
          "velocity": 0.8503937007874016,
          "duration": 0.4938266666666635
        },
        {
          "name": "D4",
          "midi": 62,
          "time": 71.85178000000047,
          "velocity": 0.8503937007874016,
          "duration": 0.4938266666666635
        },
        {
          "name": "D#6",
          "midi": 87,
          "time": 72.40733500000047,
          "velocity": 0.8503937007874016,
          "duration": 0.13117270833333805
        },
        {
          "name": "D#5",
          "midi": 75,
          "time": 72.40733500000047,
          "velocity": 0.8503937007874016,
          "duration": 0.13117270833333805
        },
        {
          "name": "D#4",
          "midi": 63,
          "time": 72.40733500000047,
          "velocity": 0.8503937007874016,
          "duration": 0.13117270833333805
        },
        {
          "name": "C6",
          "midi": 84,
          "time": 72.59252000000048,
          "velocity": 0.8503937007874016,
          "duration": 0.6481474999999932
        },
        {
          "name": "C5",
          "midi": 72,
          "time": 72.59252000000048,
          "velocity": 0.8503937007874016,
          "duration": 0.6481474999999932
        },
        {
          "name": "C4",
          "midi": 60,
          "time": 72.59252000000048,
          "velocity": 0.8503937007874016,
          "duration": 0.6481474999999932
        },
        {
          "name": "G5",
          "midi": 79,
          "time": 73.51844500000047,
          "velocity": 0.8503937007874016,
          "duration": 0.13117270833333805
        },
        {
          "name": "G4",
          "midi": 67,
          "time": 73.51844500000047,
          "velocity": 0.8503937007874016,
          "duration": 0.13117270833333805
        },
        {
          "name": "G3",
          "midi": 55,
          "time": 73.51844500000047,
          "velocity": 0.8503937007874016,
          "duration": 0.13117270833333805
        },
        {
          "name": "C6",
          "midi": 84,
          "time": 73.70363000000047,
          "velocity": 0.8503937007874016,
          "duration": 0.13117270833333805
        },
        {
          "name": "C5",
          "midi": 72,
          "time": 73.70363000000047,
          "velocity": 0.8503937007874016,
          "duration": 0.13117270833333805
        },
        {
          "name": "C4",
          "midi": 60,
          "time": 73.70363000000047,
          "velocity": 0.8503937007874016,
          "duration": 0.13117270833333805
        },
        {
          "name": "D6",
          "midi": 86,
          "time": 73.88881500000048,
          "velocity": 0.8503937007874016,
          "duration": 0.13117270833333805
        },
        {
          "name": "D5",
          "midi": 74,
          "time": 73.88881500000048,
          "velocity": 0.8503937007874016,
          "duration": 0.13117270833333805
        },
        {
          "name": "D4",
          "midi": 62,
          "time": 73.88881500000048,
          "velocity": 0.8503937007874016,
          "duration": 0.13117270833333805
        },
        {
          "name": "D#6",
          "midi": 87,
          "time": 74.07400000000048,
          "velocity": 0.8503937007874016,
          "duration": 0.4938266666666635
        },
        {
          "name": "D#5",
          "midi": 75,
          "time": 74.07400000000048,
          "velocity": 0.8503937007874016,
          "duration": 0.4938266666666635
        },
        {
          "name": "D#4",
          "midi": 63,
          "time": 74.07400000000048,
          "velocity": 0.8503937007874016,
          "duration": 0.4938266666666635
        },
        {
          "name": "F6",
          "midi": 89,
          "time": 74.62955500000048,
          "velocity": 0.8503937007874016,
          "duration": 0.13117270833333805
        },
        {
          "name": "F5",
          "midi": 77,
          "time": 74.62955500000048,
          "velocity": 0.8503937007874016,
          "duration": 0.13117270833333805
        },
        {
          "name": "F4",
          "midi": 65,
          "time": 74.62955500000048,
          "velocity": 0.8503937007874016,
          "duration": 0.13117270833333805
        },
        {
          "name": "D6",
          "midi": 86,
          "time": 74.81474000000048,
          "velocity": 0.8503937007874016,
          "duration": 0.4938266666666635
        },
        {
          "name": "D5",
          "midi": 74,
          "time": 74.81474000000048,
          "velocity": 0.8503937007874016,
          "duration": 0.4938266666666635
        },
        {
          "name": "D4",
          "midi": 62,
          "time": 74.81474000000048,
          "velocity": 0.8503937007874016,
          "duration": 0.4938266666666635
        },
        {
          "name": "D#6",
          "midi": 87,
          "time": 75.37029500000048,
          "velocity": 0.8503937007874016,
          "duration": 0.13117270833333805
        },
        {
          "name": "D#5",
          "midi": 75,
          "time": 75.37029500000048,
          "velocity": 0.8503937007874016,
          "duration": 0.13117270833333805
        },
        {
          "name": "D#4",
          "midi": 63,
          "time": 75.37029500000048,
          "velocity": 0.8503937007874016,
          "duration": 0.13117270833333805
        },
        {
          "name": "C6",
          "midi": 84,
          "time": 75.55548000000049,
          "velocity": 0.8503937007874016,
          "duration": 0.6481474999999932
        },
        {
          "name": "C5",
          "midi": 72,
          "time": 75.55548000000049,
          "velocity": 0.8503937007874016,
          "duration": 0.6481474999999932
        },
        {
          "name": "C4",
          "midi": 60,
          "time": 75.55548000000049,
          "velocity": 0.8503937007874016,
          "duration": 0.6481474999999932
        },
        {
          "name": "C6",
          "midi": 84,
          "time": 76.48140500000048,
          "velocity": 0.8503937007874016,
          "duration": 0.11959864583333513
        },
        {
          "name": "C5",
          "midi": 72,
          "time": 76.48140500000048,
          "velocity": 0.8503937007874016,
          "duration": 0.11959864583333513
        },
        {
          "name": "C4",
          "midi": 60,
          "time": 76.48140500000048,
          "velocity": 0.8503937007874016,
          "duration": 0.11959864583333513
        },
        {
          "name": "B5",
          "midi": 83,
          "time": 76.60486166666715,
          "velocity": 0.8503937007874016,
          "duration": 0.05787031250000041
        },
        {
          "name": "B4",
          "midi": 71,
          "time": 76.60486166666715,
          "velocity": 0.8503937007874016,
          "duration": 0.05787031250000041
        },
        {
          "name": "B3",
          "midi": 59,
          "time": 76.60486166666715,
          "velocity": 0.8503937007874016,
          "duration": 0.05787031250000041
        },
        {
          "name": "C6",
          "midi": 84,
          "time": 76.66659000000048,
          "velocity": 0.8503937007874016,
          "duration": 0.11959864583333513
        },
        {
          "name": "C5",
          "midi": 72,
          "time": 76.66659000000048,
          "velocity": 0.8503937007874016,
          "duration": 0.11959864583333513
        },
        {
          "name": "C4",
          "midi": 60,
          "time": 76.66659000000048,
          "velocity": 0.8503937007874016,
          "duration": 0.11959864583333513
        },
        {
          "name": "D6",
          "midi": 86,
          "time": 76.79004666666715,
          "velocity": 0.8503937007874016,
          "duration": 0.05787031250000041
        },
        {
          "name": "D5",
          "midi": 74,
          "time": 76.79004666666715,
          "velocity": 0.8503937007874016,
          "duration": 0.05787031250000041
        },
        {
          "name": "D4",
          "midi": 62,
          "time": 76.79004666666715,
          "velocity": 0.8503937007874016,
          "duration": 0.05787031250000041
        },
        {
          "name": "D#6",
          "midi": 87,
          "time": 76.85177500000049,
          "velocity": 0.8503937007874016,
          "duration": 0.11959864583333513
        },
        {
          "name": "D#5",
          "midi": 75,
          "time": 76.85177500000049,
          "velocity": 0.8503937007874016,
          "duration": 0.11959864583333513
        },
        {
          "name": "D#4",
          "midi": 63,
          "time": 76.85177500000049,
          "velocity": 0.8503937007874016,
          "duration": 0.11959864583333513
        },
        {
          "name": "F6",
          "midi": 89,
          "time": 76.97523166666716,
          "velocity": 0.8503937007874016,
          "duration": 0.05787031250000041
        },
        {
          "name": "F5",
          "midi": 77,
          "time": 76.97523166666716,
          "velocity": 0.8503937007874016,
          "duration": 0.05787031250000041
        },
        {
          "name": "F4",
          "midi": 65,
          "time": 76.97523166666716,
          "velocity": 0.8503937007874016,
          "duration": 0.05787031250000041
        },
        {
          "name": "G6",
          "midi": 91,
          "time": 77.03696000000049,
          "velocity": 0.8503937007874016,
          "duration": 0.23148125000000164
        },
        {
          "name": "G5",
          "midi": 79,
          "time": 77.03696000000049,
          "velocity": 0.8503937007874016,
          "duration": 0.23148125000000164
        },
        {
          "name": "G4",
          "midi": 67,
          "time": 77.03696000000049,
          "velocity": 0.8503937007874016,
          "duration": 0.23148125000000164
        },
        {
          "name": "G6",
          "midi": 91,
          "time": 77.4073300000005,
          "velocity": 0.8503937007874016,
          "duration": 0.23148125000000164
        },
        {
          "name": "G5",
          "midi": 79,
          "time": 77.4073300000005,
          "velocity": 0.8503937007874016,
          "duration": 0.23148125000000164
        },
        {
          "name": "G4",
          "midi": 67,
          "time": 77.4073300000005,
          "velocity": 0.8503937007874016,
          "duration": 0.23148125000000164
        },
        {
          "name": "G6",
          "midi": 91,
          "time": 77.77770000000051,
          "velocity": 0.8503937007874016,
          "duration": 0.23148125000000164
        },
        {
          "name": "G5",
          "midi": 79,
          "time": 77.77770000000051,
          "velocity": 0.8503937007874016,
          "duration": 0.23148125000000164
        },
        {
          "name": "G4",
          "midi": 67,
          "time": 77.77770000000051,
          "velocity": 0.8503937007874016,
          "duration": 0.23148125000000164
        },
        {
          "name": "G6",
          "midi": 91,
          "time": 78.14807000000052,
          "velocity": 0.8503937007874016,
          "duration": 0.23148125000000164
        },
        {
          "name": "G5",
          "midi": 79,
          "time": 78.14807000000052,
          "velocity": 0.8503937007874016,
          "duration": 0.23148125000000164
        },
        {
          "name": "G4",
          "midi": 67,
          "time": 78.14807000000052,
          "velocity": 0.8503937007874016,
          "duration": 0.23148125000000164
        },
        {
          "name": "G6",
          "midi": 91,
          "time": 78.51844000000052,
          "velocity": 0.8503937007874016,
          "duration": 0.9220669791666722
        },
        {
          "name": "G5",
          "midi": 79,
          "time": 78.51844000000052,
          "velocity": 0.8503937007874016,
          "duration": 0.9220669791666722
        },
        {
          "name": "G4",
          "midi": 67,
          "time": 78.51844000000052,
          "velocity": 0.8503937007874016,
          "duration": 0.9220669791666722
        },
        {
          "name": "F6",
          "midi": 89,
          "time": 79.62955000000053,
          "velocity": 0.8503937007874016,
          "duration": 0.13117270833333805
        },
        {
          "name": "F5",
          "midi": 77,
          "time": 79.62955000000053,
          "velocity": 0.8503937007874016,
          "duration": 0.13117270833333805
        },
        {
          "name": "F4",
          "midi": 65,
          "time": 79.62955000000053,
          "velocity": 0.8503937007874016,
          "duration": 0.13117270833333805
        },
        {
          "name": "G6",
          "midi": 91,
          "time": 79.81473500000054,
          "velocity": 0.8503937007874016,
          "duration": 0.13117270833333805
        },
        {
          "name": "G5",
          "midi": 79,
          "time": 79.81473500000054,
          "velocity": 0.8503937007874016,
          "duration": 0.13117270833333805
        },
        {
          "name": "G4",
          "midi": 67,
          "time": 79.81473500000054,
          "velocity": 0.8503937007874016,
          "duration": 0.13117270833333805
        },
        {
          "name": "G#6",
          "midi": 92,
          "time": 79.99992000000054,
          "velocity": 0.8503937007874016,
          "duration": 0.6481474999999932
        },
        {
          "name": "G#5",
          "midi": 80,
          "time": 79.99992000000054,
          "velocity": 0.8503937007874016,
          "duration": 0.6481474999999932
        },
        {
          "name": "G#4",
          "midi": 68,
          "time": 79.99992000000054,
          "velocity": 0.8503937007874016,
          "duration": 0.6481474999999932
        },
        {
          "name": "D6",
          "midi": 86,
          "time": 80.74066000000053,
          "velocity": 0.8503937007874016,
          "duration": 0.3086416666666736
        },
        {
          "name": "D5",
          "midi": 74,
          "time": 80.74066000000053,
          "velocity": 0.8503937007874016,
          "duration": 0.3086416666666736
        },
        {
          "name": "D4",
          "midi": 62,
          "time": 80.74066000000053,
          "velocity": 0.8503937007874016,
          "duration": 0.3086416666666736
        },
        {
          "name": "D#6",
          "midi": 87,
          "time": 81.11103000000054,
          "velocity": 0.8503937007874016,
          "duration": 0.13117270833333805
        },
        {
          "name": "D#5",
          "midi": 75,
          "time": 81.11103000000054,
          "velocity": 0.8503937007874016,
          "duration": 0.13117270833333805
        },
        {
          "name": "D#4",
          "midi": 63,
          "time": 81.11103000000054,
          "velocity": 0.8503937007874016,
          "duration": 0.13117270833333805
        },
        {
          "name": "F6",
          "midi": 89,
          "time": 81.29621500000054,
          "velocity": 0.8503937007874016,
          "duration": 0.13117270833333805
        },
        {
          "name": "F5",
          "midi": 77,
          "time": 81.29621500000054,
          "velocity": 0.8503937007874016,
          "duration": 0.13117270833333805
        },
        {
          "name": "F4",
          "midi": 65,
          "time": 81.29621500000054,
          "velocity": 0.8503937007874016,
          "duration": 0.13117270833333805
        },
        {
          "name": "G6",
          "midi": 91,
          "time": 81.48140000000055,
          "velocity": 0.8503937007874016,
          "duration": 0.6481474999999932
        },
        {
          "name": "G5",
          "midi": 79,
          "time": 81.48140000000055,
          "velocity": 0.8503937007874016,
          "duration": 0.6481474999999932
        },
        {
          "name": "G4",
          "midi": 67,
          "time": 81.48140000000055,
          "velocity": 0.8503937007874016,
          "duration": 0.6481474999999932
        },
        {
          "name": "C6",
          "midi": 84,
          "time": 82.22214000000054,
          "velocity": 0.8503937007874016,
          "duration": 0.3086416666666736
        },
        {
          "name": "C5",
          "midi": 72,
          "time": 82.22214000000054,
          "velocity": 0.8503937007874016,
          "duration": 0.3086416666666736
        },
        {
          "name": "C4",
          "midi": 60,
          "time": 82.22214000000054,
          "velocity": 0.8503937007874016,
          "duration": 0.3086416666666736
        },
        {
          "name": "C6",
          "midi": 84,
          "time": 82.59251000000054,
          "velocity": 0.8503937007874016,
          "duration": 0.13117270833333805
        },
        {
          "name": "C5",
          "midi": 72,
          "time": 82.59251000000054,
          "velocity": 0.8503937007874016,
          "duration": 0.13117270833333805
        },
        {
          "name": "C4",
          "midi": 60,
          "time": 82.59251000000054,
          "velocity": 0.8503937007874016,
          "duration": 0.13117270833333805
        },
        {
          "name": "D6",
          "midi": 86,
          "time": 82.77769500000055,
          "velocity": 0.8503937007874016,
          "duration": 0.13117270833333805
        },
        {
          "name": "D5",
          "midi": 74,
          "time": 82.77769500000055,
          "velocity": 0.8503937007874016,
          "duration": 0.13117270833333805
        },
        {
          "name": "D4",
          "midi": 62,
          "time": 82.77769500000055,
          "velocity": 0.8503937007874016,
          "duration": 0.13117270833333805
        },
        {
          "name": "D#6",
          "midi": 87,
          "time": 82.96288000000055,
          "velocity": 0.8503937007874016,
          "duration": 0.4938266666666635
        },
        {
          "name": "D#5",
          "midi": 75,
          "time": 82.96288000000055,
          "velocity": 0.8503937007874016,
          "duration": 0.4938266666666635
        },
        {
          "name": "D#4",
          "midi": 63,
          "time": 82.96288000000055,
          "velocity": 0.8503937007874016,
          "duration": 0.4938266666666635
        },
        {
          "name": "F6",
          "midi": 89,
          "time": 83.51843500000055,
          "velocity": 0.8503937007874016,
          "duration": 0.13117270833333805
        },
        {
          "name": "F5",
          "midi": 77,
          "time": 83.51843500000055,
          "velocity": 0.8503937007874016,
          "duration": 0.13117270833333805
        },
        {
          "name": "F4",
          "midi": 65,
          "time": 83.51843500000055,
          "velocity": 0.8503937007874016,
          "duration": 0.13117270833333805
        },
        {
          "name": "D6",
          "midi": 86,
          "time": 83.70362000000056,
          "velocity": 0.8503937007874016,
          "duration": 0.4938266666666635
        },
        {
          "name": "D5",
          "midi": 74,
          "time": 83.70362000000056,
          "velocity": 0.8503937007874016,
          "duration": 0.4938266666666635
        },
        {
          "name": "D4",
          "midi": 62,
          "time": 83.70362000000056,
          "velocity": 0.8503937007874016,
          "duration": 0.4938266666666635
        },
        {
          "name": "D#6",
          "midi": 87,
          "time": 84.25917500000055,
          "velocity": 0.8503937007874016,
          "duration": 0.13117270833333805
        },
        {
          "name": "D#5",
          "midi": 75,
          "time": 84.25917500000055,
          "velocity": 0.8503937007874016,
          "duration": 0.13117270833333805
        },
        {
          "name": "D#4",
          "midi": 63,
          "time": 84.25917500000055,
          "velocity": 0.8503937007874016,
          "duration": 0.13117270833333805
        },
        {
          "name": "C6",
          "midi": 84,
          "time": 84.44436000000056,
          "velocity": 0.8503937007874016,
          "duration": 0.6481474999999932
        },
        {
          "name": "C5",
          "midi": 72,
          "time": 84.44436000000056,
          "velocity": 0.8503937007874016,
          "duration": 0.6481474999999932
        },
        {
          "name": "C4",
          "midi": 60,
          "time": 84.44436000000056,
          "velocity": 0.8503937007874016,
          "duration": 0.6481474999999932
        },
        {
          "name": "F6",
          "midi": 89,
          "time": 85.55547000000055,
          "velocity": 0.8503937007874016,
          "duration": 0.13117270833333805
        },
        {
          "name": "F5",
          "midi": 77,
          "time": 85.55547000000055,
          "velocity": 0.8503937007874016,
          "duration": 0.13117270833333805
        },
        {
          "name": "F4",
          "midi": 65,
          "time": 85.55547000000055,
          "velocity": 0.8503937007874016,
          "duration": 0.13117270833333805
        },
        {
          "name": "G6",
          "midi": 91,
          "time": 85.74065500000056,
          "velocity": 0.8503937007874016,
          "duration": 0.13117270833333805
        },
        {
          "name": "G5",
          "midi": 79,
          "time": 85.74065500000056,
          "velocity": 0.8503937007874016,
          "duration": 0.13117270833333805
        },
        {
          "name": "G4",
          "midi": 67,
          "time": 85.74065500000056,
          "velocity": 0.8503937007874016,
          "duration": 0.13117270833333805
        },
        {
          "name": "G#6",
          "midi": 92,
          "time": 85.92584000000056,
          "velocity": 0.8503937007874016,
          "duration": 0.6481474999999932
        },
        {
          "name": "G#5",
          "midi": 80,
          "time": 85.92584000000056,
          "velocity": 0.8503937007874016,
          "duration": 0.6481474999999932
        },
        {
          "name": "G#4",
          "midi": 68,
          "time": 85.92584000000056,
          "velocity": 0.8503937007874016,
          "duration": 0.6481474999999932
        },
        {
          "name": "D6",
          "midi": 86,
          "time": 86.66658000000055,
          "velocity": 0.8503937007874016,
          "duration": 0.3086416666666736
        },
        {
          "name": "D5",
          "midi": 74,
          "time": 86.66658000000055,
          "velocity": 0.8503937007874016,
          "duration": 0.3086416666666736
        },
        {
          "name": "D4",
          "midi": 62,
          "time": 86.66658000000055,
          "velocity": 0.8503937007874016,
          "duration": 0.3086416666666736
        },
        {
          "name": "D#6",
          "midi": 87,
          "time": 87.03695000000056,
          "velocity": 0.8503937007874016,
          "duration": 0.13117270833333805
        },
        {
          "name": "D#5",
          "midi": 75,
          "time": 87.03695000000056,
          "velocity": 0.8503937007874016,
          "duration": 0.13117270833333805
        },
        {
          "name": "D#4",
          "midi": 63,
          "time": 87.03695000000056,
          "velocity": 0.8503937007874016,
          "duration": 0.13117270833333805
        },
        {
          "name": "F6",
          "midi": 89,
          "time": 87.22213500000056,
          "velocity": 0.8503937007874016,
          "duration": 0.13117270833333805
        },
        {
          "name": "F5",
          "midi": 77,
          "time": 87.22213500000056,
          "velocity": 0.8503937007874016,
          "duration": 0.13117270833333805
        },
        {
          "name": "F4",
          "midi": 65,
          "time": 87.22213500000056,
          "velocity": 0.8503937007874016,
          "duration": 0.13117270833333805
        },
        {
          "name": "G6",
          "midi": 91,
          "time": 87.40732000000057,
          "velocity": 0.8503937007874016,
          "duration": 0.6481474999999932
        },
        {
          "name": "G5",
          "midi": 79,
          "time": 87.40732000000057,
          "velocity": 0.8503937007874016,
          "duration": 0.6481474999999932
        },
        {
          "name": "G4",
          "midi": 67,
          "time": 87.40732000000057,
          "velocity": 0.8503937007874016,
          "duration": 0.6481474999999932
        },
        {
          "name": "C6",
          "midi": 84,
          "time": 88.14806000000056,
          "velocity": 0.8503937007874016,
          "duration": 0.3086416666666736
        },
        {
          "name": "C5",
          "midi": 72,
          "time": 88.14806000000056,
          "velocity": 0.8503937007874016,
          "duration": 0.3086416666666736
        },
        {
          "name": "C4",
          "midi": 60,
          "time": 88.14806000000056,
          "velocity": 0.8503937007874016,
          "duration": 0.3086416666666736
        },
        {
          "name": "C6",
          "midi": 84,
          "time": 88.51843000000056,
          "velocity": 0.8503937007874016,
          "duration": 0.13117270833333805
        },
        {
          "name": "C5",
          "midi": 72,
          "time": 88.51843000000056,
          "velocity": 0.8503937007874016,
          "duration": 0.13117270833333805
        },
        {
          "name": "C4",
          "midi": 60,
          "time": 88.51843000000056,
          "velocity": 0.8503937007874016,
          "duration": 0.13117270833333805
        },
        {
          "name": "D6",
          "midi": 86,
          "time": 88.70361500000057,
          "velocity": 0.8503937007874016,
          "duration": 0.13117270833333805
        },
        {
          "name": "D5",
          "midi": 74,
          "time": 88.70361500000057,
          "velocity": 0.8503937007874016,
          "duration": 0.13117270833333805
        },
        {
          "name": "D4",
          "midi": 62,
          "time": 88.70361500000057,
          "velocity": 0.8503937007874016,
          "duration": 0.13117270833333805
        },
        {
          "name": "D#6",
          "midi": 87,
          "time": 88.88880000000057,
          "velocity": 0.8503937007874016,
          "duration": 0.4938266666666635
        },
        {
          "name": "D#5",
          "midi": 75,
          "time": 88.88880000000057,
          "velocity": 0.8503937007874016,
          "duration": 0.4938266666666635
        },
        {
          "name": "D#4",
          "midi": 63,
          "time": 88.88880000000057,
          "velocity": 0.8503937007874016,
          "duration": 0.4938266666666635
        },
        {
          "name": "F6",
          "midi": 89,
          "time": 89.44435500000057,
          "velocity": 0.8503937007874016,
          "duration": 0.13117270833333805
        },
        {
          "name": "F5",
          "midi": 77,
          "time": 89.44435500000057,
          "velocity": 0.8503937007874016,
          "duration": 0.13117270833333805
        },
        {
          "name": "F4",
          "midi": 65,
          "time": 89.44435500000057,
          "velocity": 0.8503937007874016,
          "duration": 0.13117270833333805
        },
        {
          "name": "D6",
          "midi": 86,
          "time": 89.62954000000057,
          "velocity": 0.8503937007874016,
          "duration": 0.4938266666666635
        },
        {
          "name": "D5",
          "midi": 74,
          "time": 89.62954000000057,
          "velocity": 0.8503937007874016,
          "duration": 0.4938266666666635
        },
        {
          "name": "D4",
          "midi": 62,
          "time": 89.62954000000057,
          "velocity": 0.8503937007874016,
          "duration": 0.4938266666666635
        },
        {
          "name": "D#6",
          "midi": 87,
          "time": 90.18509500000057,
          "velocity": 0.8503937007874016,
          "duration": 0.13117270833333805
        },
        {
          "name": "D#5",
          "midi": 75,
          "time": 90.18509500000057,
          "velocity": 0.8503937007874016,
          "duration": 0.13117270833333805
        },
        {
          "name": "D#4",
          "midi": 63,
          "time": 90.18509500000057,
          "velocity": 0.8503937007874016,
          "duration": 0.13117270833333805
        },
        {
          "name": "C6",
          "midi": 84,
          "time": 90.37028000000058,
          "velocity": 0.8503937007874016,
          "duration": 0.6481474999999932
        },
        {
          "name": "C5",
          "midi": 72,
          "time": 90.37028000000058,
          "velocity": 0.8503937007874016,
          "duration": 0.6481474999999932
        },
        {
          "name": "C4",
          "midi": 60,
          "time": 90.37028000000058,
          "velocity": 0.8503937007874016,
          "duration": 0.6481474999999932
        },
        {
          "name": "G4",
          "midi": 67,
          "time": 91.66657500000056,
          "velocity": 0.8503937007874016,
          "duration": 0.04243822916666318
        },
        {
          "name": "A#4",
          "midi": 70,
          "time": 91.71287125000056,
          "velocity": 0.8503937007874016,
          "duration": 0.04243822916666318
        },
        {
          "name": "G5",
          "midi": 79,
          "time": 91.75916750000056,
          "velocity": 0.8503937007874016,
          "duration": 0.04243822916666318
        },
        {
          "name": "A#5",
          "midi": 82,
          "time": 91.80546375000056,
          "velocity": 0.8503937007874016,
          "duration": 0.04243822916666318
        },
        {
          "name": "C6",
          "midi": 84,
          "time": 91.85176000000055,
          "velocity": 0.8503937007874016,
          "duration": 0.23148125000000164
        },
        {
          "name": "C5",
          "midi": 72,
          "time": 91.85176000000055,
          "velocity": 0.8503937007874016,
          "duration": 0.23148125000000164
        },
        {
          "name": "C4",
          "midi": 60,
          "time": 91.85176000000055,
          "velocity": 0.8503937007874016,
          "duration": 0.23148125000000164
        }
      ],
      "controlChanges": {
        "6": [
          {
            "number": 6,
            "time": 0,
            "value": 0.09448818897637795
          },
          {
            "number": 6,
            "time": 0,
            "value": 0.09448818897637795
          },
          {
            "number": 6,
            "time": 0,
            "value": 0.09448818897637795
          },
          {
            "number": 6,
            "time": 93.33324000000056,
            "value": 0.09448818897637795
          },
          {
            "number": 6,
            "time": 93.33324000000056,
            "value": 0.09448818897637795
          },
          {
            "number": 6,
            "time": 93.33324000000056,
            "value": 0.09448818897637795
          }
        ],
        "7": [
          {
            "number": 7,
            "time": 0,
            "value": 1
          },
          {
            "number": 7,
            "time": 0,
            "value": 1
          },
          {
            "number": 7,
            "time": 0,
            "value": 1
          },
          {
            "number": 7,
            "time": 0,
            "value": 1
          },
          {
            "number": 7,
            "time": 0,
            "value": 1
          },
          {
            "number": 7,
            "time": 0,
            "value": 1
          },
          {
            "number": 7,
            "time": 93.33324000000056,
            "value": 1
          },
          {
            "number": 7,
            "time": 93.33324000000056,
            "value": 1
          },
          {
            "number": 7,
            "time": 93.33324000000056,
            "value": 1
          }
        ],
        "10": [
          {
            "number": 10,
            "time": 0,
            "value": 0.5039370078740157
          },
          {
            "number": 10,
            "time": 0,
            "value": 0.5039370078740157
          },
          {
            "number": 10,
            "time": 0,
            "value": 0.5039370078740157
          },
          {
            "number": 10,
            "time": 0,
            "value": 0.5039370078740157
          },
          {
            "number": 10,
            "time": 0,
            "value": 0.5039370078740157
          },
          {
            "number": 10,
            "time": 0,
            "value": 0.5039370078740157
          },
          {
            "number": 10,
            "time": 93.33324000000056,
            "value": 0.5039370078740157
          },
          {
            "number": 10,
            "time": 93.33324000000056,
            "value": 0.5039370078740157
          },
          {
            "number": 10,
            "time": 93.33324000000056,
            "value": 0.5039370078740157
          }
        ],
        "100": [
          {
            "number": 100,
            "time": 0,
            "value": 0
          },
          {
            "number": 100,
            "time": 0,
            "value": 0
          },
          {
            "number": 100,
            "time": 0,
            "value": 0
          },
          {
            "number": 100,
            "time": 93.33324000000056,
            "value": 0
          },
          {
            "number": 100,
            "time": 93.33324000000056,
            "value": 0
          },
          {
            "number": 100,
            "time": 93.33324000000056,
            "value": 0
          }
        ],
        "101": [
          {
            "number": 101,
            "time": 0,
            "value": 0
          },
          {
            "number": 101,
            "time": 0,
            "value": 0
          },
          {
            "number": 101,
            "time": 0,
            "value": 0
          },
          {
            "number": 101,
            "time": 93.33324000000056,
            "value": 0
          },
          {
            "number": 101,
            "time": 93.33324000000056,
            "value": 0
          },
          {
            "number": 101,
            "time": 93.33324000000056,
            "value": 0
          }
        ]
      },
      "id": 2,
      "name": "MIDITrack",
      "instrumentNumber": 0,
      "instrument": "acoustic grand piano",
      "instrumentFamily": "piano",
      "channelNumber": 0,
      "isPercussion": false
    },
    {
      "startTime": 24.629605,
      "duration": 48.884981979166966,
      "length": 156,
      "notes": [
        {
          "name": "A3",
          "midi": 57,
          "time": 24.629605,
          "velocity": 0.7244094488188977,
          "duration": 0.1813269791666663
        },
        {
          "name": "G#3",
          "midi": 56,
          "time": 24.814790000000002,
          "velocity": 0.7244094488188977,
          "duration": 0.1813269791666663
        },
        {
          "name": "A3",
          "midi": 57,
          "time": 24.999975000000003,
          "velocity": 0.7244094488188977,
          "duration": 0.1813269791666663
        },
        {
          "name": "B3",
          "midi": 59,
          "time": 25.185160000000003,
          "velocity": 0.7244094488188977,
          "duration": 0.1813269791666663
        },
        {
          "name": "E3",
          "midi": 52,
          "time": 25.370345000000004,
          "velocity": 0.7244094488188977,
          "duration": 0.1813269791666663
        },
        {
          "name": "D#3",
          "midi": 51,
          "time": 25.555530000000005,
          "velocity": 0.7244094488188977,
          "duration": 0.1813269791666663
        },
        {
          "name": "E3",
          "midi": 52,
          "time": 25.740715000000005,
          "velocity": 0.7244094488188977,
          "duration": 0.1813269791666663
        },
        {
          "name": "B3",
          "midi": 59,
          "time": 25.925900000000006,
          "velocity": 0.7244094488188977,
          "duration": 0.1813269791666663
        },
        {
          "name": "E3",
          "midi": 52,
          "time": 26.111085000000006,
          "velocity": 0.7244094488188977,
          "duration": 0.1813269791666663
        },
        {
          "name": "E4",
          "midi": 64,
          "time": 26.296270000000007,
          "velocity": 0.7244094488188977,
          "duration": 0.1813269791666663
        },
        {
          "name": "D4",
          "midi": 62,
          "time": 26.481455000000008,
          "velocity": 0.7244094488188977,
          "duration": 0.1813269791666663
        },
        {
          "name": "D4",
          "midi": 62,
          "time": 26.666640000000008,
          "velocity": 0.7244094488188977,
          "duration": 0.1813269791666663
        },
        {
          "name": "C4",
          "midi": 60,
          "time": 26.85182500000001,
          "velocity": 0.7244094488188977,
          "duration": 0.1813269791666663
        },
        {
          "name": "B3",
          "midi": 59,
          "time": 27.03701000000001,
          "velocity": 0.7244094488188977,
          "duration": 0.1813269791666663
        },
        {
          "name": "A3",
          "midi": 57,
          "time": 27.22219500000001,
          "velocity": 0.7244094488188977,
          "duration": 0.1813269791666663
        },
        {
          "name": "A3",
          "midi": 57,
          "time": 27.40738000000001,
          "velocity": 0.7244094488188977,
          "duration": 0.1813269791666663
        },
        {
          "name": "B3",
          "midi": 59,
          "time": 27.59256500000001,
          "velocity": 0.7244094488188977,
          "duration": 0.1813269791666663
        },
        {
          "name": "C4",
          "midi": 60,
          "time": 27.77775000000001,
          "velocity": 0.7244094488188977,
          "duration": 0.1813269791666663
        },
        {
          "name": "A3",
          "midi": 57,
          "time": 27.962935000000012,
          "velocity": 0.7244094488188977,
          "duration": 0.1813269791666663
        },
        {
          "name": "B3",
          "midi": 59,
          "time": 28.148120000000013,
          "velocity": 0.7244094488188977,
          "duration": 0.1813269791666663
        },
        {
          "name": "G3",
          "midi": 55,
          "time": 28.333305000000014,
          "velocity": 0.7244094488188977,
          "duration": 0.1813269791666663
        },
        {
          "name": "F#3",
          "midi": 54,
          "time": 28.518490000000014,
          "velocity": 0.7244094488188977,
          "duration": 0.1813269791666663
        },
        {
          "name": "G3",
          "midi": 55,
          "time": 28.703675000000015,
          "velocity": 0.7244094488188977,
          "duration": 0.1813269791666663
        },
        {
          "name": "B3",
          "midi": 59,
          "time": 28.888860000000015,
          "velocity": 0.7244094488188977,
          "duration": 0.1813269791666663
        },
        {
          "name": "G3",
          "midi": 55,
          "time": 29.074045000000016,
          "velocity": 0.7244094488188977,
          "duration": 0.1813269791666663
        },
        {
          "name": "G4",
          "midi": 67,
          "time": 29.259230000000017,
          "velocity": 0.7244094488188977,
          "duration": 0.1813269791666663
        },
        {
          "name": "F4",
          "midi": 65,
          "time": 29.444415000000017,
          "velocity": 0.7244094488188977,
          "duration": 0.1813269791666663
        },
        {
          "name": "F4",
          "midi": 65,
          "time": 29.629600000000018,
          "velocity": 0.7244094488188977,
          "duration": 0.1813269791666663
        },
        {
          "name": "E4",
          "midi": 64,
          "time": 29.81478500000002,
          "velocity": 0.7244094488188977,
          "duration": 0.1813269791666663
        },
        {
          "name": "D4",
          "midi": 62,
          "time": 29.99997000000002,
          "velocity": 0.7244094488188977,
          "duration": 0.1813269791666663
        },
        {
          "name": "C4",
          "midi": 60,
          "time": 30.18515500000002,
          "velocity": 0.7244094488188977,
          "duration": 0.1813269791666663
        },
        {
          "name": "C4",
          "midi": 60,
          "time": 30.37034000000002,
          "velocity": 0.7244094488188977,
          "duration": 0.1813269791666663
        },
        {
          "name": "D4",
          "midi": 62,
          "time": 30.55552500000002,
          "velocity": 0.7244094488188977,
          "duration": 0.1813269791666663
        },
        {
          "name": "E4",
          "midi": 64,
          "time": 30.74071000000002,
          "velocity": 0.7244094488188977,
          "duration": 0.1813269791666663
        },
        {
          "name": "C4",
          "midi": 60,
          "time": 30.925895000000022,
          "velocity": 0.7244094488188977,
          "duration": 0.1813269791666663
        },
        {
          "name": "C#4",
          "midi": 61,
          "time": 31.111080000000022,
          "velocity": 0.7244094488188977,
          "duration": 0.1813269791666663
        },
        {
          "name": "A3",
          "midi": 57,
          "time": 31.296265000000023,
          "velocity": 0.7244094488188977,
          "duration": 0.1813269791666663
        },
        {
          "name": "C#4",
          "midi": 61,
          "time": 31.481450000000024,
          "velocity": 0.7244094488188977,
          "duration": 0.1813269791666663
        },
        {
          "name": "E4",
          "midi": 64,
          "time": 31.666635000000024,
          "velocity": 0.7244094488188977,
          "duration": 0.1813269791666663
        },
        {
          "name": "A4",
          "midi": 69,
          "time": 31.851820000000025,
          "velocity": 0.7244094488188977,
          "duration": 0.18132697916666984
        },
        {
          "name": "A3",
          "midi": 57,
          "time": 32.03700500000003,
          "velocity": 0.7244094488188977,
          "duration": 0.18132697916666984
        },
        {
          "name": "G4",
          "midi": 67,
          "time": 32.22219000000003,
          "velocity": 0.7244094488188977,
          "duration": 0.18132697916666984
        },
        {
          "name": "A3",
          "midi": 57,
          "time": 32.40737500000004,
          "velocity": 0.7244094488188977,
          "duration": 0.18132697916666984
        },
        {
          "name": "F4",
          "midi": 65,
          "time": 32.59256000000004,
          "velocity": 0.7244094488188977,
          "duration": 0.18132697916666984
        },
        {
          "name": "E4",
          "midi": 64,
          "time": 32.777745000000046,
          "velocity": 0.7244094488188977,
          "duration": 0.18132697916666984
        },
        {
          "name": "D4",
          "midi": 62,
          "time": 32.96293000000005,
          "velocity": 0.7244094488188977,
          "duration": 0.18132697916666984
        },
        {
          "name": "C#4",
          "midi": 61,
          "time": 33.148115000000054,
          "velocity": 0.7244094488188977,
          "duration": 0.18132697916666984
        },
        {
          "name": "D4",
          "midi": 62,
          "time": 33.33330000000006,
          "velocity": 0.7244094488188977,
          "duration": 0.18132697916666984
        },
        {
          "name": "A3",
          "midi": 57,
          "time": 33.51848500000006,
          "velocity": 0.7244094488188977,
          "duration": 0.18132697916666984
        },
        {
          "name": "G#3",
          "midi": 56,
          "time": 33.703670000000066,
          "velocity": 0.7244094488188977,
          "duration": 0.18132697916666984
        },
        {
          "name": "A3",
          "midi": 57,
          "time": 33.88885500000007,
          "velocity": 0.7244094488188977,
          "duration": 0.18132697916666984
        },
        {
          "name": "D#4",
          "midi": 63,
          "time": 34.074040000000075,
          "velocity": 0.7244094488188977,
          "duration": 0.18132697916666984
        },
        {
          "name": "B3",
          "midi": 59,
          "time": 34.25922500000008,
          "velocity": 0.7244094488188977,
          "duration": 0.18132697916666984
        },
        {
          "name": "D#4",
          "midi": 63,
          "time": 34.44441000000008,
          "velocity": 0.7244094488188977,
          "duration": 0.18132697916666984
        },
        {
          "name": "F#4",
          "midi": 66,
          "time": 34.62959500000009,
          "velocity": 0.7244094488188977,
          "duration": 0.18132697916666984
        },
        {
          "name": "C5",
          "midi": 72,
          "time": 34.81478000000009,
          "velocity": 0.7244094488188977,
          "duration": 0.18132697916666984
        },
        {
          "name": "D#4",
          "midi": 63,
          "time": 34.999965000000095,
          "velocity": 0.7244094488188977,
          "duration": 0.18132697916666984
        },
        {
          "name": "B4",
          "midi": 71,
          "time": 35.1851500000001,
          "velocity": 0.7244094488188977,
          "duration": 0.18132697916666984
        },
        {
          "name": "A4",
          "midi": 69,
          "time": 35.370335000000104,
          "velocity": 0.7244094488188977,
          "duration": 0.18132697916666984
        },
        {
          "name": "A4",
          "midi": 69,
          "time": 35.55552000000011,
          "velocity": 0.7244094488188977,
          "duration": 0.18132697916666984
        },
        {
          "name": "E4",
          "midi": 64,
          "time": 35.74070500000011,
          "velocity": 0.7244094488188977,
          "duration": 0.18132697916666984
        },
        {
          "name": "B3",
          "midi": 59,
          "time": 35.925890000000116,
          "velocity": 0.7244094488188977,
          "duration": 0.18132697916666984
        },
        {
          "name": "A4",
          "midi": 69,
          "time": 36.11107500000012,
          "velocity": 0.7244094488188977,
          "duration": 0.18132697916666984
        },
        {
          "name": "G#4",
          "midi": 68,
          "time": 36.296260000000125,
          "velocity": 0.7244094488188977,
          "duration": 0.18132697916666984
        },
        {
          "name": "A4",
          "midi": 69,
          "time": 36.48144500000013,
          "velocity": 0.7244094488188977,
          "duration": 0.18132697916666984
        },
        {
          "name": "B4",
          "midi": 71,
          "time": 36.66663000000013,
          "velocity": 0.7244094488188977,
          "duration": 0.18132697916666984
        },
        {
          "name": "E4",
          "midi": 64,
          "time": 36.85181500000014,
          "velocity": 0.7244094488188977,
          "duration": 0.18132697916666984
        },
        {
          "name": "E5",
          "midi": 76,
          "time": 37.03700000000014,
          "velocity": 0.6614173228346457,
          "duration": 0.4938266666666635
        },
        {
          "name": "D5",
          "midi": 74,
          "time": 37.59255500000014,
          "velocity": 0.6614173228346457,
          "duration": 0.08873447916666777
        },
        {
          "name": "C5",
          "midi": 72,
          "time": 37.68514750000014,
          "velocity": 0.6614173228346457,
          "duration": 0.08873447916666777
        },
        {
          "name": "B4",
          "midi": 71,
          "time": 37.77774000000014,
          "velocity": 0.6614173228346457,
          "duration": 0.08873447916666777
        },
        {
          "name": "E4",
          "midi": 64,
          "time": 37.870332500000146,
          "velocity": 0.47244094488188976,
          "duration": 0.06172833333333472
        },
        {
          "name": "C5",
          "midi": 72,
          "time": 37.96292500000015,
          "velocity": 0.6614173228346457,
          "duration": 0.08873447916666777
        },
        {
          "name": "E4",
          "midi": 64,
          "time": 38.05551750000015,
          "velocity": 0.47244094488188976,
          "duration": 0.06172833333333472
        },
        {
          "name": "D5",
          "midi": 74,
          "time": 38.14811000000015,
          "velocity": 0.6614173228346457,
          "duration": 0.06172833333333472
        },
        {
          "name": "E4",
          "midi": 64,
          "time": 38.333295000000156,
          "velocity": 0.47244094488188976,
          "duration": 0.06172833333333472
        },
        {
          "name": "C5",
          "midi": 72,
          "time": 38.51848000000016,
          "velocity": 0.6614173228346457,
          "duration": 0.08873447916666777
        },
        {
          "name": "E4",
          "midi": 64,
          "time": 38.61107250000016,
          "velocity": 0.47244094488188976,
          "duration": 0.06172833333333472
        },
        {
          "name": "B4",
          "midi": 71,
          "time": 38.703665000000164,
          "velocity": 0.6614173228346457,
          "duration": 0.06172833333333472
        },
        {
          "name": "A4",
          "midi": 69,
          "time": 38.88885000000017,
          "velocity": 0.6614173228346457,
          "duration": 0.06172833333333472
        },
        {
          "name": "G#4",
          "midi": 68,
          "time": 39.07403500000017,
          "velocity": 0.6614173228346457,
          "duration": 0.06172833333333472
        },
        {
          "name": "A4",
          "midi": 69,
          "time": 39.25922000000018,
          "velocity": 0.6614173228346457,
          "duration": 0.08873447916666777
        },
        {
          "name": "E4",
          "midi": 64,
          "time": 39.35181250000018,
          "velocity": 0.47244094488188976,
          "duration": 0.06172833333333472
        },
        {
          "name": "B4",
          "midi": 71,
          "time": 39.44440500000018,
          "velocity": 0.6614173228346457,
          "duration": 0.08873447916666777
        },
        {
          "name": "E4",
          "midi": 64,
          "time": 39.53699750000018,
          "velocity": 0.47244094488188976,
          "duration": 0.06172833333333472
        },
        {
          "name": "C5",
          "midi": 72,
          "time": 39.629590000000185,
          "velocity": 0.6614173228346457,
          "duration": 0.08873447916666777
        },
        {
          "name": "E4",
          "midi": 64,
          "time": 39.72218250000019,
          "velocity": 0.47244094488188976,
          "duration": 0.06172833333333472
        },
        {
          "name": "A4",
          "midi": 69,
          "time": 39.81477500000019,
          "velocity": 0.6614173228346457,
          "duration": 0.08873447916666777
        },
        {
          "name": "E4",
          "midi": 64,
          "time": 39.90736750000019,
          "velocity": 0.47244094488188976,
          "duration": 0.06172833333333472
        },
        {
          "name": "B4",
          "midi": 71,
          "time": 39.99996000000019,
          "velocity": 0.6614173228346457,
          "duration": 0.4938266666666635
        },
        {
          "name": "G4",
          "midi": 67,
          "time": 40.55551500000019,
          "velocity": 0.6614173228346457,
          "duration": 0.08873447916666777
        },
        {
          "name": "B4",
          "midi": 71,
          "time": 40.648107500000194,
          "velocity": 0.6614173228346457,
          "duration": 0.08873447916666777
        },
        {
          "name": "G5",
          "midi": 79,
          "time": 40.740700000000196,
          "velocity": 0.6614173228346457,
          "duration": 0.18132697916666984
        },
        {
          "name": "F5",
          "midi": 77,
          "time": 40.9258850000002,
          "velocity": 0.6614173228346457,
          "duration": 0.18132697916666984
        },
        {
          "name": "E5",
          "midi": 76,
          "time": 41.111070000000204,
          "velocity": 0.6614173228346457,
          "duration": 0.18132697916666984
        },
        {
          "name": "D5",
          "midi": 74,
          "time": 41.29625500000021,
          "velocity": 0.6614173228346457,
          "duration": 0.18132697916666984
        },
        {
          "name": "E5",
          "midi": 76,
          "time": 41.48144000000021,
          "velocity": 0.6614173228346457,
          "duration": 0.08873447916666777
        },
        {
          "name": "G4",
          "midi": 67,
          "time": 41.574032500000214,
          "velocity": 0.47244094488188976,
          "duration": 0.08873447916666777
        },
        {
          "name": "D5",
          "midi": 74,
          "time": 41.66662500000022,
          "velocity": 0.6614173228346457,
          "duration": 0.08873447916666777
        },
        {
          "name": "G4",
          "midi": 67,
          "time": 41.75921750000022,
          "velocity": 0.47244094488188976,
          "duration": 0.08873447916666777
        },
        {
          "name": "C5",
          "midi": 72,
          "time": 41.85181000000022,
          "velocity": 0.6614173228346457,
          "duration": 0.08873447916666777
        },
        {
          "name": "G4",
          "midi": 67,
          "time": 41.94440250000022,
          "velocity": 0.47244094488188976,
          "duration": 0.08873447916666777
        },
        {
          "name": "B4",
          "midi": 71,
          "time": 42.036995000000225,
          "velocity": 0.6614173228346457,
          "duration": 0.08873447916666777
        },
        {
          "name": "G4",
          "midi": 67,
          "time": 42.12958750000023,
          "velocity": 0.47244094488188976,
          "duration": 0.08873447916666777
        },
        {
          "name": "C5",
          "midi": 72,
          "time": 42.22218000000023,
          "velocity": 0.6614173228346457,
          "duration": 0.08873447916666777
        },
        {
          "name": "G4",
          "midi": 67,
          "time": 42.31477250000023,
          "velocity": 0.47244094488188976,
          "duration": 0.08873447916666777
        },
        {
          "name": "D5",
          "midi": 74,
          "time": 42.40736500000023,
          "velocity": 0.6614173228346457,
          "duration": 0.08873447916666777
        },
        {
          "name": "G4",
          "midi": 67,
          "time": 42.499957500000235,
          "velocity": 0.47244094488188976,
          "duration": 0.08873447916666777
        },
        {
          "name": "E5",
          "midi": 76,
          "time": 42.59255000000024,
          "velocity": 0.6614173228346457,
          "duration": 0.08873447916666777
        },
        {
          "name": "G4",
          "midi": 67,
          "time": 42.68514250000024,
          "velocity": 0.47244094488188976,
          "duration": 0.08873447916666777
        },
        {
          "name": "C5",
          "midi": 72,
          "time": 42.77773500000024,
          "velocity": 0.6614173228346457,
          "duration": 0.08873447916666777
        },
        {
          "name": "G4",
          "midi": 67,
          "time": 42.87032750000024,
          "velocity": 0.47244094488188976,
          "duration": 0.08873447916666777
        },
        {
          "name": "A#5",
          "midi": 82,
          "time": 42.962920000000246,
          "velocity": 0.6614173228346457,
          "duration": 0.4938266666666635
        },
        {
          "name": "G5",
          "midi": 79,
          "time": 43.518475000000244,
          "velocity": 0.47244094488188976,
          "duration": 0.06172833333333472
        },
        {
          "name": "A#5",
          "midi": 82,
          "time": 43.611067500000246,
          "velocity": 0.6614173228346457,
          "duration": 0.09259250000000208
        },
        {
          "name": "G5",
          "midi": 79,
          "time": 43.70366000000025,
          "velocity": 0.6614173228346457,
          "duration": 0.06558635416666903
        },
        {
          "name": "A#5",
          "midi": 82,
          "time": 43.79625250000025,
          "velocity": 0.6614173228346457,
          "duration": 0.06558635416666903
        },
        {
          "name": "E5",
          "midi": 76,
          "time": 43.88884500000025,
          "velocity": 0.6614173228346457,
          "duration": 0.06558635416666903
        },
        {
          "name": "G5",
          "midi": 79,
          "time": 43.981437500000254,
          "velocity": 0.6614173228346457,
          "duration": 0.06558635416666903
        },
        {
          "name": "C#5",
          "midi": 73,
          "time": 44.074030000000256,
          "velocity": 0.6614173228346457,
          "duration": 0.06558635416666903
        },
        {
          "name": "E5",
          "midi": 76,
          "time": 44.16662250000026,
          "velocity": 0.6614173228346457,
          "duration": 0.06558635416666903
        },
        {
          "name": "A4",
          "midi": 69,
          "time": 44.25921500000026,
          "velocity": 0.6614173228346457,
          "duration": 0.06558635416666903
        },
        {
          "name": "E5",
          "midi": 76,
          "time": 44.35180750000026,
          "velocity": 0.6614173228346457,
          "duration": 0.06558635416666903
        },
        {
          "name": "A5",
          "midi": 81,
          "time": 44.444400000000265,
          "velocity": 0.6614173228346457,
          "duration": 0.13117270833333095
        },
        {
          "name": "G5",
          "midi": 79,
          "time": 44.62958500000026,
          "velocity": 0.47244094488188976,
          "duration": 0.06558635416666903
        },
        {
          "name": "A5",
          "midi": 81,
          "time": 44.722177500000264,
          "velocity": 0.6614173228346457,
          "duration": 0.06558635416666903
        },
        {
          "name": "F5",
          "midi": 77,
          "time": 44.814770000000266,
          "velocity": 0.6614173228346457,
          "duration": 0.13117270833333095
        },
        {
          "name": "A5",
          "midi": 81,
          "time": 44.99995500000026,
          "velocity": 0.47244094488188976,
          "duration": 0.13117270833333095
        },
        {
          "name": "E5",
          "midi": 76,
          "time": 45.18514000000026,
          "velocity": 0.6614173228346457,
          "duration": 0.13117270833333095
        },
        {
          "name": "A5",
          "midi": 81,
          "time": 45.37032500000026,
          "velocity": 0.47244094488188976,
          "duration": 0.13117270833333095
        },
        {
          "name": "D5",
          "midi": 74,
          "time": 45.555510000000254,
          "velocity": 0.6614173228346457,
          "duration": 0.13117270833333095
        },
        {
          "name": "A5",
          "midi": 81,
          "time": 45.74069500000025,
          "velocity": 0.47244094488188976,
          "duration": 0.13117270833333095
        },
        {
          "name": "D#5",
          "midi": 75,
          "time": 45.92588000000025,
          "velocity": 0.6614173228346457,
          "duration": 0.4938266666666635
        },
        {
          "name": "B4",
          "midi": 71,
          "time": 46.481435000000246,
          "velocity": 0.47244094488188976,
          "duration": 0.05787031250000041
        },
        {
          "name": "D#5",
          "midi": 75,
          "time": 46.54316333333358,
          "velocity": 0.47244094488188976,
          "duration": 0.05787031250000041
        },
        {
          "name": "F#5",
          "midi": 78,
          "time": 46.604891666666916,
          "velocity": 0.47244094488188976,
          "duration": 0.05787031250000041
        },
        {
          "name": "C6",
          "midi": 84,
          "time": 46.66662000000025,
          "velocity": 0.6614173228346457,
          "duration": 0.18132697916666984
        },
        {
          "name": "B4",
          "midi": 71,
          "time": 46.851805000000255,
          "velocity": 0.6614173228346457,
          "duration": 0.18132697916666984
        },
        {
          "name": "B5",
          "midi": 83,
          "time": 47.03699000000026,
          "velocity": 0.6614173228346457,
          "duration": 0.18132697916666984
        },
        {
          "name": "A5",
          "midi": 81,
          "time": 47.22217500000026,
          "velocity": 0.6614173228346457,
          "duration": 0.18132697916666984
        },
        {
          "name": "E4",
          "midi": 64,
          "time": 47.40736000000027,
          "velocity": 0.6614173228346457,
          "duration": 0.08873447916666777
        },
        {
          "name": "G#4",
          "midi": 68,
          "time": 47.49995250000027,
          "velocity": 0.6614173228346457,
          "duration": 0.08873447916666777
        },
        {
          "name": "B4",
          "midi": 71,
          "time": 47.59254500000027,
          "velocity": 0.6614173228346457,
          "duration": 0.08873447916666777
        },
        {
          "name": "D5",
          "midi": 74,
          "time": 47.68513750000027,
          "velocity": 0.6614173228346457,
          "duration": 0.08873447916666777
        },
        {
          "name": "E5",
          "midi": 76,
          "time": 47.777730000000275,
          "velocity": 0.6614173228346457,
          "duration": 0.08873447916666777
        },
        {
          "name": "G#5",
          "midi": 80,
          "time": 47.87032250000028,
          "velocity": 0.6614173228346457,
          "duration": 0.08873447916666777
        },
        {
          "name": "B5",
          "midi": 83,
          "time": 47.96291500000028,
          "velocity": 0.6614173228346457,
          "duration": 0.08873447916666777
        },
        {
          "name": "D6",
          "midi": 86,
          "time": 48.05550750000028,
          "velocity": 0.6614173228346457,
          "duration": 0.08873447916666777
        },
        {
          "name": "E6",
          "midi": 88,
          "time": 48.148100000000284,
          "velocity": 0.6614173228346457,
          "duration": 0.08873447916666777
        },
        {
          "name": "B5",
          "midi": 83,
          "time": 48.240692500000286,
          "velocity": 0.6614173228346457,
          "duration": 0.08873447916666777
        },
        {
          "name": "G#5",
          "midi": 80,
          "time": 48.33328500000029,
          "velocity": 0.6614173228346457,
          "duration": 0.08873447916666777
        },
        {
          "name": "E5",
          "midi": 76,
          "time": 48.42587750000029,
          "velocity": 0.6614173228346457,
          "duration": 0.08873447916666777
        },
        {
          "name": "B4",
          "midi": 71,
          "time": 48.51847000000029,
          "velocity": 0.6614173228346457,
          "duration": 0.08873447916666777
        },
        {
          "name": "G#4",
          "midi": 68,
          "time": 48.611062500000294,
          "velocity": 0.6614173228346457,
          "duration": 0.08873447916666777
        },
        {
          "name": "E4",
          "midi": 64,
          "time": 48.703655000000296,
          "velocity": 0.6614173228346457,
          "duration": 0.08873447916666777
        },
        {
          "name": "G#4",
          "midi": 68,
          "time": 48.7962475000003,
          "velocity": 0.6614173228346457,
          "duration": 0.08873447916666777
        }
      ],
      "controlChanges": {
        "6": [
          {
            "number": 6,
            "time": 0,
            "value": 0.09448818897637795
          },
          {
            "number": 6,
            "time": 0,
            "value": 0.09448818897637795
          },
          {
            "number": 6,
            "time": 0,
            "value": 0.09448818897637795
          },
          {
            "number": 6,
            "time": 93.3332400000003,
            "value": 0.09448818897637795
          },
          {
            "number": 6,
            "time": 93.3332400000003,
            "value": 0.09448818897637795
          },
          {
            "number": 6,
            "time": 93.3332400000003,
            "value": 0.09448818897637795
          }
        ],
        "7": [
          {
            "number": 7,
            "time": 0,
            "value": 1
          },
          {
            "number": 7,
            "time": 0,
            "value": 1
          },
          {
            "number": 7,
            "time": 0,
            "value": 1
          },
          {
            "number": 7,
            "time": 0,
            "value": 1
          },
          {
            "number": 7,
            "time": 0,
            "value": 1
          },
          {
            "number": 7,
            "time": 0,
            "value": 1
          },
          {
            "number": 7,
            "time": 93.3332400000003,
            "value": 1
          },
          {
            "number": 7,
            "time": 93.3332400000003,
            "value": 1
          },
          {
            "number": 7,
            "time": 93.3332400000003,
            "value": 1
          }
        ],
        "10": [
          {
            "number": 10,
            "time": 0,
            "value": 0.5039370078740157
          },
          {
            "number": 10,
            "time": 0,
            "value": 0.5039370078740157
          },
          {
            "number": 10,
            "time": 0,
            "value": 0.5039370078740157
          },
          {
            "number": 10,
            "time": 0,
            "value": 0.5039370078740157
          },
          {
            "number": 10,
            "time": 0,
            "value": 0.5039370078740157
          },
          {
            "number": 10,
            "time": 0,
            "value": 0.5039370078740157
          },
          {
            "number": 10,
            "time": 93.3332400000003,
            "value": 0.5039370078740157
          },
          {
            "number": 10,
            "time": 93.3332400000003,
            "value": 0.5039370078740157
          },
          {
            "number": 10,
            "time": 93.3332400000003,
            "value": 0.5039370078740157
          }
        ],
        "100": [
          {
            "number": 100,
            "time": 0,
            "value": 0
          },
          {
            "number": 100,
            "time": 0,
            "value": 0
          },
          {
            "number": 100,
            "time": 0,
            "value": 0
          },
          {
            "number": 100,
            "time": 93.3332400000003,
            "value": 0
          },
          {
            "number": 100,
            "time": 93.3332400000003,
            "value": 0
          },
          {
            "number": 100,
            "time": 93.3332400000003,
            "value": 0
          }
        ],
        "101": [
          {
            "number": 101,
            "time": 0,
            "value": 0
          },
          {
            "number": 101,
            "time": 0,
            "value": 0
          },
          {
            "number": 101,
            "time": 0,
            "value": 0
          },
          {
            "number": 101,
            "time": 93.3332400000003,
            "value": 0
          },
          {
            "number": 101,
            "time": 93.3332400000003,
            "value": 0
          },
          {
            "number": 101,
            "time": 93.3332400000003,
            "value": 0
          }
        ]
      },
      "id": 3,
      "name": "MIDITrack #2",
      "instrumentNumber": 0,
      "instrument": "acoustic grand piano",
      "instrumentFamily": "piano",
      "channelNumber": 0,
      "isPercussion": false
    }
  ]
}
